<?xml version="1.0" encoding="UTF-8"?>
<!DOCTYPE svg PUBLIC "-//W3C//DTD SVG 1.1//EN" "http://www.w3.org/Graphics/SVG/1.1/DTD/svg11.dtd">
<!-- Creator: CorelDRAW -->
<svg xmlns="http://www.w3.org/2000/svg" xml:space="preserve" width="187.96mm" height="265.811mm" version="1.1" style="shape-rendering:geometricPrecision; text-rendering:geometricPrecision; image-rendering:optimizeQuality; fill-rule:evenodd; clip-rule:evenodd"
viewBox="0 0 18796 26581.1"
 xmlns:xlink="http://www.w3.org/1999/xlink"
 xmlns:xodm="http://www.corel.com/coreldraw/odm/2003">
 <defs>
  <style type="text/css">
   <![CDATA[
    .fil31 {fill:none;fill-rule:nonzero}
    .fil7 {fill:#197A57;fill-rule:nonzero}
    .fil9 {fill:#228C69;fill-rule:nonzero}
    .fil8 {fill:#269A76;fill-rule:nonzero}
    .fil17 {fill:#2C9A74;fill-rule:nonzero}
    .fil10 {fill:#30A67F;fill-rule:nonzero}
    .fil15 {fill:#31A47E;fill-rule:nonzero}
    .fil12 {fill:#31B787;fill-rule:nonzero}
    .fil14 {fill:#34AD86;fill-rule:nonzero}
    .fil13 {fill:#39B48B;fill-rule:nonzero}
    .fil16 {fill:#3ABE90;fill-rule:nonzero}
    .fil36 {fill:#3F736F;fill-rule:nonzero}
    .fil35 {fill:#447D7B;fill-rule:nonzero}
    .fil11 {fill:#47C79D;fill-rule:nonzero}
    .fil41 {fill:#4E8581;fill-rule:nonzero}
    .fil40 {fill:#528D8B;fill-rule:nonzero}
    .fil37 {fill:#548988;fill-rule:nonzero}
    .fil44 {fill:#619897;fill-rule:nonzero}
    .fil38 {fill:#61A09C;fill-rule:nonzero}
    .fil39 {fill:#629694;fill-rule:nonzero}
    .fil42 {fill:#6DACA8;fill-rule:nonzero}
    .fil43 {fill:#6EA3A1;fill-rule:nonzero}
    .fil18 {fill:#8CB529;fill-rule:nonzero}
    .fil19 {fill:#98CC31;fill-rule:nonzero}
    .fil25 {fill:#9BC038;fill-rule:nonzero}
    .fil34 {fill:#9E3400;fill-rule:nonzero}
    .fil28 {fill:#A5D43F;fill-rule:nonzero}
    .fil21 {fill:#B1DB53;fill-rule:nonzero}
    .fil30 {fill:#B57B2F;fill-rule:nonzero}
    .fil22 {fill:#B7E859;fill-rule:nonzero}
    .fil27 {fill:#C0E35D;fill-rule:nonzero}
    .fil26 {fill:#C5E66B;fill-rule:nonzero}
    .fil20 {fill:#C8F763;fill-rule:nonzero}
    .fil32 {fill:#C9873E;fill-rule:nonzero}
    .fil29 {fill:#D0EC77;fill-rule:nonzero}
    .fil23 {fill:#D3F37C;fill-rule:nonzero}
    .fil2 {fill:#DD662A;fill-rule:nonzero}
    .fil24 {fill:#DEFB84;fill-rule:nonzero}
    .fil45 {fill:#E35019;fill-rule:nonzero}
    .fil6 {fill:#EA6624;fill-rule:nonzero}
    .fil48 {fill:#EE8346;fill-rule:nonzero}
    .fil47 {fill:#F2904C;fill-rule:nonzero}
    .fil46 {fill:#FF7336;fill-rule:nonzero}
    .fil0 {fill:#FF94BD;fill-rule:nonzero}
    .fil49 {fill:#FF9857;fill-rule:nonzero}
    .fil3 {fill:#FF9E68;fill-rule:nonzero}
    .fil4 {fill:#FFAC82;fill-rule:nonzero}
    .fil33 {fill:#FFD140;fill-rule:nonzero}
    .fil5 {fill:#FFD561;fill-rule:nonzero}
    .fil1 {fill:white;fill-rule:nonzero}
   ]]>
  </style>
 </defs>
 <g id="Capa_x0020_1">
  <metadata id="CorelCorpID_0Corel-Layer"/>
  <polygon class="fil0" points="-2,26582.04 18792.63,26582.04 18792.63,1.9 -2,1.9 "/>
  <path class="fil1" d="M5068.55 13517.5c-1163.73,411.82 -2371.43,1786.79 -2156.18,3101.48 243.49,1487.18 2092.02,2181.83 3427.07,1882.93 1596.45,-357.24 2527.12,-1840.26 2195.73,-3429.65 -272.41,-1306.32 -2172.59,-1845.02 -3309.16,-1594.2 -167.37,36.97 -96.38,293.21 70.79,256.34 1003.77,-221.62 2518.37,225.87 2932.91,1244.77 266.62,654.93 81.6,1500.78 -237.22,2098.88 -337.05,632.37 -1071.61,970.35 -1723.7,1167.52 -1135.74,343.64 -2776.96,-372.57 -3077.14,-1557.37 -303.62,-1198.22 899.59,-2543.52 1947.53,-2914.35 160.43,-56.83 91.32,-313.78 -70.63,-256.35z"/>
  <path class="fil1" d="M4055.91 12960.99c-335.73,-314.85 -585.95,-760.92 -714.14,-1201.44 -47.71,-164.22 -304.29,-94.27 -256.2,70.66 140.68,483.98 413.22,972.59 782.38,1318.7 124.87,117.21 313.17,-70.38 187.96,-187.92z"/>
  <path class="fil1" d="M2146.4 14580.71c-470.29,-177.68 -950.06,-378.87 -1452.93,-437.94 -170.11,-19.96 -168.24,246.09 0,265.82 475.11,55.75 938.34,260.73 1382.27,428.36 160.67,60.71 229.42,-196.33 70.66,-256.24z"/>
  <path class="fil1" d="M1839.49 16943.37c-303.72,76.22 -596.93,184.31 -892.39,287.08 -132.3,45.95 -388.78,61.55 -466.03,195.87 -36.4,63.19 -14.77,144.73 47.71,181.8l18.79 11.35c147.54,87.9 281.16,-141.89 134.18,-229.55l-18.88 -11.22c15.94,60.61 31.77,121.22 47.71,181.83 3.65,-6.5 425.52,-115.06 484.73,-135.86 236.14,-83.04 471.92,-163.98 714.8,-225.06 166.23,-41.69 95.71,-297.93 -70.62,-256.24z"/>
  <path class="fil1" d="M3434.77 18552.71c-275.16,267.93 -504.45,576.74 -761.73,861.08 -49.99,55.29 -97.11,113.42 -145.9,169.64 -27.89,32.15 -56.49,63.56 -85.19,94.87 -16.07,17.62 -92.36,73.71 -56.69,65.57 43.13,11.35 86.13,22.8 129.22,34.16 13.37,28.46 26.49,56.92 39.82,85.29 55.99,-162.45 -200.82,-231.67 -256.34,-70.66 -23.17,67.11 -15.14,117.3 28.6,173.29 29.03,37.21 87.06,43.97 129.36,34.26 152.59,-35.19 284.93,-258.22 379.77,-369.39 256.01,-300.18 504.08,-614.65 787.01,-890.25 122.99,-119.68 -65.2,-307.51 -187.93,-187.86z"/>
  <path class="fil1" d="M6951.38 12688.91c160.4,-349.81 254.2,-898.29 582.4,-1133.73 137.84,-98.89 5.3,-329.58 -134.21,-229.42 -386.64,277.37 -489.78,819.39 -677.84,1228.97 -70.89,154.6 158.06,289.76 229.65,134.18z"/>
  <path class="fil1" d="M9581.5 14272.26c413.93,-246.33 834.96,-535.99 1307.02,-656 166,-42.16 95.58,-298.54 -70.62,-256.34 -495.24,125.91 -936.46,424.57 -1370.61,682.92 -147.08,87.54 -13.47,317.33 134.21,229.42z"/>
  <path class="fil1" d="M5851.67 19018.77c-9.18,514.1 93.43,1036.93 210.76,1535.37 39.29,167.39 293.31,88.46 254.34,-77.31 -112.44,-477.88 -208.13,-974.76 -199.36,-1467.48 3.1,-172 -262.63,-161.05 -265.74,9.42z"/>
  <path class="fil2" d="M10717.82 17173.52c197.41,331.58 529.46,526.04 806.13,783.12 202.5,187.93 280.12,549.89 608.29,542.82 171.05,-3.78 171.52,-269.6 0,-265.82 -132.91,2.85 -206.15,-198.34 -267.59,-290.73 -69.69,-104.65 -167.37,-189.94 -261.17,-271.95 -231.09,-201.39 -495.84,-362.42 -656,-631.66 -87.54,-147.07 -317.56,-13.46 -229.66,134.22z"/>
  <path class="fil3" d="M17790.03 22974.83c-40.28,-91.18 -170.24,-156.98 -269.7,-163.38 -536.46,-34.02 -1965.27,0 -1965.27,0 -6.97,255.31 -15.01,507.53 -23.28,759.38 -8.4,-251.85 -16.67,-504.07 -23.4,-759.38 0,0 -1429.05,-34.02 -1965.28,0 -99.59,6.4 -229.51,72.2 -269.93,163.38 -40.29,91.32 -33.89,195.53 -26.09,294.86 13.93,179.92 29.87,359.61 47.49,539.17 46.64,472.66 117.87,972.49 420.56,1338.46 354.02,428 891.55,556.05 1384.88,624.1 141.14,19.49 343.03,19.15 431.77,17.95 88.38,1.2 290.37,1.54 431.55,-17.95 493.33,-68.05 1030.82,-196.1 1384.74,-624.1 302.79,-365.97 373.92,-865.8 420.56,-1338.46 17.72,-179.56 33.56,-359.25 47.49,-539.17 7.8,-99.33 14.2,-203.54 -26.09,-294.86z"/>
  <path class="fil4" d="M16260.05 23994.91c2.52,45.04 8.64,89.21 22.34,132.21 21.4,67.1 -1.54,51.73 17.95,-13.23 -6.26,21.13 -8.98,43.36 -6.83,65.2 11.35,122.29 107.96,210.86 204,276.2 225.06,152.76 509.53,92.25 703.49,-73.84 262.03,-224.1 188.8,-607.42 57.76,-875.11 -133.01,-271.71 -403.88,-453.05 -710.45,-382.52 -104.65,24.07 -215.46,97.58 -281.26,182.03 -38.64,49.63 -74.91,92.16 -101.36,147.91 -24.35,51.27 -83.99,196.57 -18.69,44.88 -20.42,47.61 -42.02,95 -59.4,143.79 -95.81,269.2 -11.82,549.31 162.68,761.12 113.28,137.39 320.13,193.85 488.47,207.45 232.97,18.79 432.71,-107.16 562.68,-290.5 180.72,-255.03 128.42,-644.28 -22.1,-899.12 -143.43,-242.88 -380.28,-352.98 -649.62,-388.55 -317.89,-42.06 -544.12,235.22 -650.68,490.75 -94.86,227.28 -23.87,495.21 71,706.77 116.46,259.56 420.42,456.97 704.09,447.25 294.48,-9.91 580.63,-226.43 630.96,-525.91 60.34,-359.95 -94.07,-671.61 -385.14,-881.27 -257.31,-185.35 -608.99,-86.83 -823.87,106.42 -209.8,188.53 -274.99,536.09 -117.64,776.26 115.86,176.98 318.83,273.35 529.36,215.49 196.33,-53.98 350.61,-244.66 344.11,-451.97 -0.7,-46.92 -4.72,-19.26 -12.06,82.81 -31.64,124.14 -40.98,105.72 -19.48,55.76 17.14,-39.49 68.17,-81.54 -35.1,38.27 28.13,-32.62 -4.25,-10.75 -30.71,11.09 -23.5,19.48 -42.29,38.97 -9.1,19.85 -90.95,52.58 -171.86,50.9 -271.95,34.49 -26.46,-11.82 -52.78,-23.64 -79.36,-35.42 41.45,25.61 27.62,15 -41.36,-31.78 -87.9,-84.02 -27.63,-34.86 -4.25,10.28 -8.98,-19.76 -17.95,-39.48 -26.83,-59.07 13.47,55.05 12.43,38.27 -3.55,-50.33 17.62,-91.22 20.33,-111.88 8.41,-61.69 22.1,-87.77 79.63,-154.04 153.94,-202.59 80.06,-52.44 169.51,-51.37 259.42,-35.33 23.84,11.12 47.82,22.1 71.83,33.22 -42.66,-25.28 -32.99,-15.84 28.93,28.23 -39.95,-33.19 -30.37,-16.31 -15.94,0.6 14.77,17.35 34.73,34.73 11.79,-2.24 -24.55,-39.72 -15.24,-12.19 -2.95,15.33 12.76,28.37 28.83,56.83 14.3,10.89 -12.76,-40.05 -13.36,-123.94 0.94,34.35 -2.24,-23.74 -0.47,-47.58 1.2,-71.36 -15.03,92.86 -16.54,114.49 -4.85,64.87 11.22,-43.23 -4.49,-12.29 -16.68,18.55 -11.55,29.43 -19.96,58.84 1.31,24.21 -52.44,85.42 -116.37,124.54 -207.79,159.26 -30.94,3.65 -62.01,7.3 -92.96,10.99 49.73,1.3 27.76,-1.78 -65.7,-9.21 -117.9,-27.9 -65.1,-30.37 -15.6,1.17 -23.84,-18.08 -47.82,-36.17 -71.7,-54.22 32.72,34.83 19.73,16.18 -39.34,-55.52 12.52,16.55 22.23,35.2 31.91,53.52 20.43,38.27 9.44,9.07 -3.18,-20.1 -13,-29.9 -27.76,-59.77 -12.53,-17.38 7.54,20.7 12.39,42.2 17.25,63.56 9.78,43.37 6.96,10.42 2.11,-22.53 -4.82,-32.99 -11.82,-66.04 -10.15,-22.57 1.64,42.99 8.14,9.3 12.06,-24.35 3.88,-33.18 5.29,-66.27 -2.85,-26.22 -8.14,39.45 7.8,8.37 20.09,-22.67 11.56,-29.54 19.83,-59.2 0.57,-27.53 48.56,-79.53 113.56,-133.51 202.6,-162.11 28.83,-3.75 57.9,-7.53 86.73,-11.31 -49.86,-1.54 -30.14,2.11 58.93,10.61 -39.21,-6.73 -104.07,-42.06 40.66,23.41 -15.61,-7.1 -30.01,-17.38 -44.67,-26.22 -37.58,-24.82 -19.49,-10.52 54.11,42.86 -28.6,-24.44 -59.07,-81.51 28.93,42.53 -9.31,-13.23 -16.64,-28 -23.74,-42.4 61.32,124.51 33.22,81.38 22.34,42.63 -9.45,-34.02 -12.66,-102.53 3.88,47.02 -1.77,-16.78 -1.77,-33.66 -1.77,-50.43 0,-36.74 17.74,-90.85 -7.91,42.76 5.66,-29.4 41.69,-96.17 -17.84,36.27 17.01,-38.14 77.52,-101.23 -14.17,6.63 22.34,-26.26 69.82,-50 -40.15,27.15 26.79,-18.78 -7.1,-6.12 -34.26,6.37 -22.57,10.51 -40.52,21.03 -14.53,13.36 -77.86,23.04 -69.02,13.46 -146.37,-0.34 26.45,4.73 11.69,-3.91 -8.74,-12.52 -26.72,-11.35 -63.09,-22.57 -30.01,-4.15 27.87,15.6 13.1,2.01 -4.98,-11.59 -20.67,-15.47 -45.71,-30.94 -16.51,-2.95 18.28,17.62 58.33,78.1 -1.31,-5.42 28.46,39.82 51.27,83.98 72.53,127.92 -42.06,-87.03 -11.35,-18.05 -5.42,6.03 -24.35,-97.08 -5.09,-49.13 -4.99,-13.33 0.13,38.37 5.22,14.06 7.7,-10.18 2.48,-23.74 2.58,-47.35 -6.86,-12.86 8.13,-18.32 16.17,-36.63 24.34,-54.95 -46.21,107.29 -50.56,118.74 -12.76,34.25 -6.86,16.08 -16.67,30.75 -26.45,45.28 55.75,-82.71 32.71,-42.19 8.13,-21.27 -18.18,23.38 -36.16,46.79 -54.21,70.16 38.27,-45.84 45.57,-56.12 21.83,-30.71 -21.83,22.81 -4.48,10.62 10.42,-1.4 13.93,-11.36 25.51,-22.71 0.33,-5.46 -13.56,9.34 -28.46,16.91 -42.99,24.71 63.92,-34.02 22.7,-9.58 1.9,-3.45 -31.91,9.58 -6.02,6.73 7.2,4.02 8.88,-1.88 12.16,-3.78 -10.65,-2.01 -3.04,0.24 -10.61,-0.23 -17.71,-0.57 -14.53,-0.97 -27.16,-1.91 4.72,3.18 -52.81,-8.4 -88.7,-9.34 -141.15,1.17 35.3,4.63 70.63,9.21 105.96,13.83 -14.64,-9.57 -27.06,-40.18 -33.42,-56.12 -42.3,-104.18 -218.57,-102.54 -211.61,28.7z"/>
  <path class="fil5" d="M17790.03 22974.83c-40.28,-91.18 -170.24,-156.98 -269.7,-163.38 -536.46,-34.02 -1965.27,0 -1965.27,0 -6.97,255.31 -15.01,507.53 -23.28,759.38 -8.4,-251.85 -16.67,-504.07 -23.4,-759.38 0,0 -1429.05,-34.02 -1965.28,0 -99.59,6.4 -229.51,72.2 -269.93,163.38 -40.29,91.32 -33.89,195.53 -26.09,294.86 13.93,179.92 29.87,359.61 47.49,539.17 46.64,472.66 117.87,972.49 420.56,1338.46 354.02,428 891.55,556.05 1384.88,624.1 141.14,19.49 343.03,19.15 431.77,17.95 88.38,1.2 290.37,1.54 431.55,-17.95 493.33,-68.05 1030.82,-196.1 1384.74,-624.1 302.79,-365.97 373.92,-865.8 420.56,-1338.46 17.72,-179.56 33.56,-359.25 47.49,-539.17 7.8,-99.33 14.2,-203.54 -26.09,-294.86z"/>
  <path class="fil6" d="M13282.38 23681.61l15.23 22.7c111.78,167.87 226.14,350.88 399.3,461.08 37.94,24.11 90.51,15.24 121.46,-15.6 254.23,-253.4 456.45,-588.17 778.26,-762.43 -47.15,-12.53 -94.26,-24.82 -141.51,-37.21 114.45,207.92 251.38,392.1 380.24,589.97 67.47,103.48 170.01,259.53 311.29,259.53 147.68,0 255.07,-162.45 334.8,-264.01 160.91,-205.21 366.21,-361.86 554.51,-541.32 -55.99,-7.3 -111.88,-14.53 -167.87,-21.73 163.52,313.77 334.94,663.21 650.11,849.86 37.91,22.57 99.36,19.86 129,-16.64 121.79,-149.45 232.83,-307.18 364.43,-448.32 139.54,-149.59 322.88,-250.11 465,-397.76 -50,0 -99.96,0 -150.06,0 120.96,137.8 315.05,322.98 434.9,519.78l7.16 -70.65c8.07,-81.95 15.78,-163.89 23.08,-245.9 -108,-133.84 -229.02,-255.13 -315.08,-353.28 -37.57,-43 -111.88,-39.68 -150.06,0 -122.62,127.11 -269.7,225.16 -404.11,339.05 -167.17,141.75 -288.49,338.22 -425.89,506.46 43.13,-5.56 86.13,-11.12 129.13,-16.68 -279.99,-166.1 -428.13,-495.34 -572.96,-773.78 -32.72,-62.72 -120.15,-67.11 -167.87,-21.6 -236.62,225.27 -454.45,438.51 -669.34,682.23 -112.34,127.35 -230.82,-142.59 -286.47,-225.07 -102.54,-152.03 -205.31,-293.78 -295.22,-454.68 -28,-50.1 -92.86,-63.79 -141.52,-37.1 -339.15,186.42 -548.85,530.66 -815.6,799.66 40.41,-5.22 80.93,-10.41 121.32,-15.6 -151.8,-95.34 -251.02,-258.36 -360.08,-396.45 -57.23,-72.47 -119.69,-142.29 -181.8,-212.68 8.17,99.46 16.94,198.85 26.22,298.17z"/>
  <path class="fil6" d="M13407.65 24513.62c81.04,114.66 171.52,223.32 289.26,298.2 37.94,24.11 90.51,15.24 121.46,-15.61 254.23,-253.39 456.45,-588.16 778.26,-762.52 -47.15,-12.43 -94.26,-24.72 -141.51,-37.11 114.59,207.79 251.38,392.2 380.37,589.97 67.34,103.48 169.88,259.53 311.16,259.53 147.68,0 255.07,-162.45 334.8,-264.01 160.91,-205.34 366.21,-361.86 554.51,-541.32 -55.99,-7.2 -111.88,-14.4 -167.87,-21.6 163.52,313.64 334.94,663.08 650.11,849.73 37.91,22.57 99.36,19.86 129.13,-16.64 121.66,-149.45 232.7,-307.18 364.3,-448.32 139.54,-149.59 322.88,-250.12 465,-397.76 -59.07,-15.6 -118.28,-31.21 -177.35,-46.78 86.83,222.69 214.22,424.38 334.84,629.99 30.14,-99.99 53.58,-202.97 72.46,-307.21 -75.61,-122.63 -150.69,-245.86 -202.56,-379.27 -27.76,-71.09 -117.44,-109.04 -177.45,-46.78 -122.62,127.11 -269.7,225.16 -404.11,339.05 -167.17,141.75 -288.49,338.22 -425.89,506.45 43.13,-5.55 86.13,-11.11 129.13,-16.67 -279.99,-166.1 -428.13,-495.34 -572.96,-773.78 -32.72,-62.72 -120.15,-67.21 -167.87,-21.6 -236.62,225.27 -454.45,438.51 -669.34,682.23 -112.34,127.35 -230.82,-142.59 -286.47,-225.07 -102.54,-152.03 -205.31,-293.78 -295.22,-454.68 -28,-50.1 -92.86,-63.79 -141.52,-36.97 -339.15,186.29 -548.85,530.63 -815.6,799.53 40.41,-5.23 80.93,-10.42 121.32,-15.61 -151.8,-95.33 -251.15,-258.11 -360.18,-396.35 -34.53,-43.76 -70.96,-86.53 -108.07,-129.05 18.86,135.15 43.23,269.7 77.86,400.03z"/>
  <path class="fil6" d="M13262.62 23002.09c11.92,17.25 23.77,34.66 35.49,52.24 111.85,167.64 225.5,351.11 398.93,461.32 37.91,24.11 90.25,15.23 121.33,-15.57 227.74,-226.98 413.72,-519.25 681.35,-703.16 -106.35,-0.57 -213.64,-0.77 -317.79,-0.4 -179.09,175.7 -329.81,385.16 -505.21,562.01 40.41,-5.29 80.93,-10.52 121.32,-15.71 -151.7,-95.2 -251.52,-257.88 -360.55,-395.98 -20.73,-26.32 -42.13,-52.31 -63.96,-78.06 -44.57,27.86 -81.84,64.3 -100.36,106.05 -3.95,8.98 -7.47,18.09 -10.55,27.26zm1248.25 -205.1c101.77,169.61 216.03,326.69 324.62,493.39 67.34,103.37 169.88,259.42 311.16,259.42 147.68,0 255.07,-162.44 334.8,-263.91 12.86,-16.4 26.02,-32.55 39.42,-48.35 -2.95,-92.99 -5.76,-186.22 -8.44,-279.78 -100.53,102.37 -199.01,207.01 -296.9,317.95 -112.34,127.35 -230.82,-142.58 -286.47,-225.16 -57.64,-85.36 -115.33,-167.47 -170.72,-251.52 -80.44,-0.87 -163.62,-1.57 -247.47,-2.04zm1032.43 414.56c130.8,-148.68 283.17,-274.02 429.57,-408.1l175.74 -2.58c119.31,227.51 257.75,457.77 477.09,587.89 -43,5.56 -86,11.12 -129.13,16.68 137.4,-168.34 258.72,-364.8 425.89,-506.45 41.12,-34.83 83.41,-68.18 125.81,-101.33 118.74,1.24 229.78,3.45 326.06,6.86 -120.89,101.4 -254.84,187.73 -362.56,303.22 -131.74,141.18 -242.78,298.87 -364.44,448.32 -29.77,36.51 -91.22,39.22 -129.13,16.65 -288.08,-170.62 -456.02,-477.19 -607.65,-768.26 -101.8,1.71 -187.52,3.35 -249.34,4.66 -36.7,36.03 -73.1,72.13 -109.13,108.43 -2.82,98.35 -5.73,196.3 -8.78,294.01zm1867.9 -405.62c151.93,177.61 283.9,362.76 397.05,562.68l7.87 -98.92c7.8,-99.33 14.2,-203.54 -26.09,-294.86 -40.28,-91.18 -170.24,-156.98 -269.7,-163.38 -33.15,-2.11 -69.69,-3.92 -109.13,-5.52z"/>
  <path class="fil7" d="M15695.97 20940.35c-246.2,154.03 -554.41,205.77 -837.44,140.34 -84.82,-19.62 -178.85,-61.32 -200.12,-145.8 -10.41,-40.99 -0.6,-84.46 14.07,-124.04 42.63,-115.29 125.57,-211.1 215.92,-294.38 120.76,-111.18 261.67,-206.51 421.63,-242.78 160.07,-36.37 341.3,-5.66 460.15,107.39 118.84,113.19 154.4,314.71 56.82,446.68 -34.39,46.55 -81.87,81.84 -131.03,112.59z"/>
  <path class="fil8" d="M16756.6 20699.11c50.43,69.68 63.42,161.13 52.67,246.53 -10.75,85.32 -42.86,166.36 -75.95,245.86 -14.53,35.09 -29.67,70.75 -53.98,99.92 -44.77,54.12 -117.2,80.47 -187.49,79.87 -39.45,-0.24 -79.26,-8.61 -113.65,-27.9 -95.21,-53.28 -127.22,-173.29 -141.39,-281.39 -19.28,-148.01 -15.5,-316.25 89.41,-422.43 22.57,-22.91 50.1,-42.3 81.51,-49.5 38.18,-8.87 77.99,0.84 116,10.52 42.29,10.61 84.72,21.5 127.01,32.25 19.26,4.85 38.61,9.81 55.99,19.49 20.1,11.11 36.27,28.22 49.87,46.78z"/>
  <path class="fil8" d="M17082.99 22634.37c-67.91,24.58 -146.13,9.45 -207.55,-28.69 -61.45,-38.04 -107.76,-96.88 -142.72,-160.2 -73.94,-134.19 -101.23,-293.68 -75.85,-444.88 36.87,-220.34 179.09,-411.95 218.91,-631.79 199.64,28.83 331.25,223.39 401.54,412.29 50.46,135.49 83.04,280.22 70.89,424.34 -12.06,144.13 -72.9,287.89 -184.05,380.14 -24.47,20.33 -51.26,38.05 -81.17,48.79z"/>
  <path class="fil8" d="M14435.49 23277.62c13.83,0.57 28.23,0.24 40.39,-6.39 24.71,-13.47 29.53,-46.18 31.21,-74.31 26.22,-460.58 -55.89,-926.98 -238.16,-1350.96 -26.45,-61.55 -63.56,-129.49 -129.26,-143.56 -231.76,258.02 -336.91,624.7 -277.14,966.23 25.89,148.75 82.95,294.38 181.34,408.74 98.41,114.49 240.9,194.83 391.62,200.25z"/>
  <path class="fil7" d="M16438.44 23209.58c-17.48,-31.31 -54.55,-45.38 -88.81,-56.13 -160.57,-50.56 -330.31,-82.58 -497.58,-62.25 -87.67,10.62 -172.96,35.43 -257.68,60.14 -203.63,59.31 -430.94,138.57 -517.77,331.82 165.52,136.56 341.4,277.98 553,314.85 324.75,56.56 654.1,-165.29 795.61,-462.99 18.79,-39.45 34.73,-87.3 13.23,-125.44z"/>
  <path class="fil9" d="M16630.32 21105.37c-40.29,116.97 -167.3,176.37 -281.99,222.69 -118.38,47.71 -238.3,95.33 -364.44,114.82 -126.18,19.73 -260.73,9.44 -372.14,-53.18 -63.42,-35.66 -116.7,-86.69 -169.28,-137.12 -89.67,-85.9 -179.08,-171.79 -268.63,-257.65 -27.19,-26.12 -56.02,-55.66 -59.2,-93.23 -2.11,-26.45 9.11,-52.1 22.1,-75.38 102.17,-184.51 304.8,-286.34 497.35,-372.57 116.7,-52.21 235.91,-103.24 362.42,-122.03 126.52,-18.78 263.08,-2.14 367.52,71.56 139.17,98.05 196.23,273.62 244.52,436.64 25.65,86.6 51.17,180.02 21.77,265.45z"/>
  <path class="fil9" d="M13799.68 21467.09c48.92,200.59 177.11,371.17 302.32,535.39 54.11,71.13 114.12,146.24 199.78,171.28 86.33,25.19 181.57,-8.27 249.85,-66.84 68.04,-58.6 113.15,-139.3 150.95,-220.81 140.25,-301.58 200.49,-639.93 172.83,-971.42 -30.57,-78.32 -120.72,-120.85 -204.84,-119.64 -84.12,1.17 -163.48,37.53 -237.92,76.78 -213.68,112.82 -410.85,256.68 -583.34,425.85 -21.13,20.7 -42.63,42.9 -52.21,70.99 -10.75,31.55 -5.19,66.04 2.58,98.42z"/>
  <path class="fil9" d="M16911.57 23321.22c-122.49,20.66 -244.89,41.22 -367.28,61.79 -161.47,27.25 -328.74,54.21 -487.3,12.85 -43.47,-11.35 -87.07,-28.46 -119.41,-59.77 -27.76,-26.82 -45.75,-62.15 -59.78,-98.28 -69.72,-178.62 -53.27,-382.15 9.31,-563.52 62.76,-181.2 168.71,-344.11 278.44,-501.46 119.69,-171.52 245.5,-339.39 386.31,-494.17 43.36,-47.82 96.27,-97.81 160.77,-96.27 39.81,0.83 76.21,21.73 110.57,42.06 121.69,71.83 250.45,151.09 309.89,279.38 29.17,63.09 38.98,133.14 48.32,202.02 42.86,311.87 85.52,630.22 27.39,939.51 -13.59,72.53 -35.19,148.14 -89.54,198.11 -55.29,50.69 -133.71,65.33 -207.69,77.75z"/>
  <path class="fil10" d="M15335.79 22732.32c4.15,-72.8 8.27,-145.43 12.42,-218.1 4.72,-85.39 9.44,-172.12 -9.34,-255.5 -19.39,-86.83 -63.46,-165.99 -106.79,-243.72 -41.12,-73.94 -86.26,-151.79 -160.81,-191.84 -42.76,-23.04 -91.65,-31.45 -140.07,-36.17 -387.85,-38.27 -766.25,138.1 -1087.45,359.01 -71.33,49.16 -149.42,119.45 -135.49,204.98 9.11,55.62 55.39,96.74 98.99,132.44 185.01,151.32 378.26,296.39 595.39,396.55 217.03,100.19 461.32,153.57 697.23,114.59 77.15,-12.76 159.73,-40.39 200.96,-106.89 28.36,-45.61 32.01,-101.73 34.96,-155.35z"/>
  <path class="fil8" d="M14882.04 20829.3c277.84,-34.86 573.76,-19.75 816.54,120.12 242.41,139.87 413.7,428.83 349.44,701.38 -51.14,217.36 -240.17,383.46 -451.27,455.99 -211.24,72.43 -441.83,63.79 -662.37,29.77 -44.77,-6.97 -89.91,-15 -131.27,-33.42 -80.8,-35.93 -139.61,-107.63 -188.9,-181.1 -114.22,-170.38 -193.48,-364 -231.53,-565.39 -12.99,-68.41 -21.13,-139.4 -4.85,-206.98 24.81,-103.24 105.15,-186.65 198.71,-236.62 93.7,-50.09 200.25,-70.52 305.5,-83.75z"/>
  <path class="fil10" d="M16935.45 21109.02c32.58,273.72 -46.68,552.76 -183.81,791.86 -52,90.38 -112.82,176.98 -192.11,244.65 -237.09,202.5 -605.18,194.46 -877.36,42.67 -147.67,-82.48 -277.27,-206.62 -337.98,-364.34 -60.84,-157.72 -43.5,-350.14 67.31,-477.86 76.82,-88.6 188.33,-138.43 297.23,-181.93 335.97,-134.08 693.68,-234.24 1054.83,-214.98 43.23,2.34 89.78,7.66 122.26,36.5 34.02,30.1 44.2,78.32 49.63,123.43z"/>
  <path class="fil9" d="M14818.72 22300.65c-138.94,-23.61 -286.35,-45.01 -417.72,6.49 -165.52,64.87 -271.84,239.33 -289.42,416.18 -17.72,176.97 41.59,354.19 129.46,508.83 88,154.51 204.03,290.7 312.36,431.78 23.61,30.94 48.05,62.95 81.74,82.57 31.65,18.29 69.12,24.22 105.62,26.09 194.42,10.05 379.91,-79.26 544.36,-183.34 122.49,-77.39 244.75,-171.18 299.1,-305.6 77.63,-192.45 -5.42,-412.42 -117.77,-587.02 -70.19,-109.04 -154.41,-212.51 -265.35,-279.25 -114.92,-69.12 -250.18,-94.16 -382.38,-116.73z"/>
  <path class="fil10" d="M16327.63 22807.67c14.3,-239.93 -18.79,-515.4 -213.68,-655.97 -62.62,-45.38 -136.93,-71.97 -211.7,-91.56 -160.91,-42.19 -344.01,-51.03 -482.25,41.33 -153.2,102.43 -209.66,298.06 -245.45,478.79 -28.73,145.43 -51.04,297.93 -9.11,440.05 27.29,92.52 80.33,175.07 135.15,254.37 50.1,72.29 102.4,142.92 156.89,211.9 60.11,76.45 144.69,158.79 239.33,136.46 39.34,-9.34 71.93,-35.8 103.14,-61.42 89.64,-73.97 179.32,-147.81 268.86,-221.75 56.13,-46.17 112.82,-93.09 154.74,-152.39 76.79,-108.67 96.18,-247 104.08,-379.81z"/>
  <path class="fil11" d="M14874.84 22407.8c89.78,78.09 181.43,157.36 290.97,204.14 109.5,46.65 241.57,56.09 344.01,-4.62 90.81,-53.98 145.3,-155.45 166.56,-258.96 21.13,-103.6 13.09,-210.63 5.06,-315.88 -5.43,-71.12 -10.99,-142.11 -16.41,-213.11 -0.84,-12.76 -1.88,-25.75 -6.6,-37.67 -8.5,-21.26 -27.79,-36.17 -47.38,-48.22 -123.23,-75.48 -283.64,-67.44 -418.09,-14.53 -134.44,53.17 -248.9,145.9 -360.88,237.35 -48.69,39.68 -98.29,80.3 -132.07,133.35 -20.93,33.08 -35.47,73.26 -26.26,111.31 9.34,38.84 41.12,67.81 71.36,94.03 43.37,37.57 86.5,75.24 129.73,112.81z"/>
  <path class="fil12" d="M15919.36 22578.38c-125.34,-17.94 -228.35,-105.71 -318.23,-194.92 -65.93,-65.33 -131.73,-138.1 -152.06,-228.72 -24.54,-109.73 25.18,-226.8 106.22,-304.89 80.91,-77.96 188.9,-122.16 297.8,-150.39 164.55,-42.53 337.51,-52.34 505.75,-28.7 34.49,4.85 70.29,11.69 98.75,31.88 51.51,36.4 66.14,106.32 65.9,169.41 -0.23,128.89 -45.34,254.23 -106.08,367.88 -50.53,94.27 -113.52,184.18 -198.34,249.38 -84.83,65.33 -193.72,104.08 -299.71,89.07z"/>
  <path class="fil8" d="M15353.63 22318.59c-6.63,97.35 42.63,189.61 98.05,270.08 89.31,129.46 198.48,245.22 322.75,341.76 36.83,28.57 84.82,56.83 127.45,37.81 27.06,-12.06 42.9,-39.95 55.76,-66.41 72.9,-150.15 109.3,-317.89 104.81,-484.72 -2.75,-96.98 -21.77,-188.63 -86.83,-260.59 -64.87,-71.93 -158.19,-115.4 -254.23,-128.99 -72.3,-10.28 -147.78,-4.16 -215.73,23.04 -21.03,8.27 -41.35,18.78 -58.36,33.78 -62.59,55.06 -88.01,151.1 -93.67,234.24z"/>
  <path class="fil9" d="M15539.59 22279.85c64.02,21.87 131.83,31.91 199.28,29.67 54.68,-1.78 90.71,-72.3 85.76,-126.88 -4.59,-51.64 -42.63,-93.46 -80.1,-129.5 -33.79,-32.71 -70.76,-65.43 -116.61,-76.65 -72.86,-17.85 -146.23,23.04 -208.48,65.2 -27.06,18.45 -54.72,38.28 -71.36,66.41 -16.88,28.23 -20.2,66.97 0.6,92.39 11.32,13.79 28.23,21.96 44.77,28.8 55.62,23.17 89.07,31.07 146.14,50.56z"/>
  <path class="fil13" d="M15399.71 21579.81c-134.45,-174.6 324.62,-371.91 423.14,-413.26 206.51,-86.7 483.28,-169.14 734.2,-169.14 92.39,0 181.23,11.21 261.8,37.43 69.22,22.58 48.89,121.43 -15,121.43 -5.56,0 -11.59,-0.71 -17.85,-2.35 -76.79,-20.32 -160.54,-29.16 -246.9,-29.16 -202.13,0 -418.32,48.52 -590.31,112.58 -170.71,63.52 -456.96,154.84 -533.04,340.33l-16.04 2.14z"/>
  <path class="fil14" d="M15673.53 21110.46c-6.02,0 -12.39,-1.21 -18.88,-3.79 -157.36,-62.62 -328.91,-136.32 -501.13,-138.56 -11.59,-0.14 -23.18,-0.24 -34.73,-0.24 -43.5,0 -86.6,0.94 -129.49,1.88 -42.87,0.93 -85.76,2.01 -128.52,2.01 -64.5,0 -129,-2.25 -194.33,-9.82l-4.02 -14.86c137.17,-62.99 285.65,-90.99 435.33,-90.99 207.55,0 417.48,53.78 602.36,142.35 53.98,25.76 24.82,112.02 -26.59,112.02z"/>
  <path class="fil15" d="M16517.84 20895.81c-6.03,0 -12.06,-1.78 -17.85,-5.56 -37.68,-24.68 -41.56,-50.1 -57.4,-91.69 -22.44,-58.8 -47.95,-118.47 -83.98,-170.45 -63.7,-92.02 -151.57,-170.48 -240.87,-236.38 -8.18,-6.16 -9.11,-21.26 3.18,-23.87 10.28,-2.11 20.66,-3.19 30.84,-3.19 105.72,0 204.13,108.43 264.85,181.7 56.09,67.45 170.11,229.52 137.73,321.78 -5.43,15.6 -20.56,27.66 -36.5,27.66z"/>
  <path class="fil16" d="M16147.84 22459.54c-43.6,0 -73.84,-69.22 -25.85,-98.75 218.63,-134.69 221.61,-358.91 302.05,-573.43l20.79 -2.71c104.92,219 -86.83,542.22 -270.3,666.02 -9.08,6.16 -18.18,8.87 -26.69,8.87z"/>
  <path class="fil15" d="M17118.09 23087.05c-34.63,0 -72.77,-30.71 -66.27,-76.05 32.11,-226.7 16.17,-449.29 11.55,-676.93 -4.25,-212.65 -40.52,-363.5 -157.92,-541.85 -6.03,-9.25 2.24,-23.78 12.75,-23.78 1.64,0 3.18,0.23 4.83,0.97 178.61,74.88 230.62,285.74 248.33,463.09 26.69,267.19 52.34,545.63 -2.94,810.61 -6.4,30.85 -27.66,43.94 -50.33,43.94z"/>
  <path class="fil13" d="M15898.7 23394.09c-45.84,0 -80.67,-57.3 -41.83,-96.74 91.69,-93.1 202.5,-162.21 264.52,-282.1 51.97,-100.79 97.58,-219.74 116.7,-331.95 0.97,-5.79 6.49,-8.77 11.95,-8.77 5.43,0 10.62,2.84 11.45,8.77 19.02,138.43 33.56,263.07 -36.26,392.53 -67.58,125.01 -172.49,244.32 -299.14,311.19 -9.21,4.96 -18.52,7.07 -27.39,7.07z"/>
  <path class="fil15" d="M14815.17 23733.01c-32.35,0 -64.26,-4.59 -94.87,-15.34 -18.29,-6.49 -21.97,-29.9 -5.29,-40.65 111.61,-72.77 255.17,-86.23 371.77,-154.27 58.7,-34.26 125.91,-112.72 196.8,-112.72 6.36,0 12.86,0.6 19.36,2.01 10.64,2.24 22.33,13.13 24.11,24.11 16.07,101.36 -133.72,170.81 -209.93,207.08 -89.08,42.43 -197.98,89.78 -301.95,89.78z"/>
  <path class="fil13" d="M13794.72 22321.31c-10.98,0 -20.66,-13.33 -15,-25.62 54.35,-116.37 168.81,-180.63 277.64,-239.33 141.28,-76.22 288.69,-137.87 439.08,-193.99 5.79,-2.24 11.35,-3.18 16.78,-3.18 49.15,0 77.85,82.21 25.88,104.54 -143.29,61.55 -290.26,110.91 -429.67,181.8 -95.57,48.69 -228.21,92.26 -303.35,170.59 -3.55,3.68 -7.57,5.19 -11.36,5.19z"/>
  <path class="fil15" d="M14086.86 21846.53c-3.51,0 -7.06,-0.7 -10.48,-2.24 -59.07,-25.15 -101.13,-122.03 -129.36,-174.6 -37.24,-69.82 -70.52,-141.42 -107.16,-211.57 -6.26,-11.92 3.79,-24.92 14.77,-24.92 3.79,0 7.67,1.51 10.99,5.06 55.28,58.97 104.44,124.4 146.83,193.29 33.09,53.61 95.44,128.05 95.58,194.69 0,13.23 -10.15,20.29 -21.17,20.29z"/>
  <path class="fil17" d="M14956.58 20573.4c-10.51,0 -20.09,-10.15 -16.54,-21.27 20.79,-65.3 95.7,-108.9 148.75,-146.47 58.1,-41.12 120.35,-81.74 193.01,-87.2 0.47,0 0.94,-0.1 1.41,-0.1 16.44,0 25.28,23.51 12.89,34.49 -52.47,46.55 -105.14,87.67 -164.45,126.05 -54.11,35.09 -107.96,77.39 -170.95,93.93 -1.27,0.33 -2.71,0.57 -4.12,0.57z"/>
  <path class="fil17" d="M15968.62 23717.44c-13.7,0 -21.13,-21.27 -7.3,-28.37 51.37,-26.22 92.86,-70.75 136.19,-107.96 30.84,-26.82 78.79,-77.15 122.53,-79.16 0.23,0 0.57,0 0.8,0 13.83,0 22.1,14.06 19.39,26.59 -9.81,45.84 -79.87,84.82 -115.53,108.33 -46.31,30.47 -98.55,62.95 -151.69,79.86 -1.54,0.47 -2.95,0.71 -4.39,0.71z"/>
  <path class="fil18" d="M9930.68 17399.62c-223.39,-4.12 -349.43,-264.61 -365.97,-487.67 -30.24,-405.19 122.76,-799.26 182.4,-1201.17 76.55,-516.7 -108.57,-1089.19 -183.34,-1429.65 -13.7,-62.85 69.58,-84.35 104.31,-30.14 255.4,399.3 483.05,823.27 597.27,1283.18 104.55,420.09 111.65,859.67 68.18,1290.38 -12.99,128.52 -31.54,260.13 -94.27,372.94 -62.85,112.95 -179.32,204.51 -308.58,202.13z"/>
  <path class="fil18" d="M9512.37 20150.73c29.67,-25.52 32.98,-69.69 32.85,-108.8 -1.54,-627.04 -300.31,-1247.02 -789.86,-1638.88 -234.24,60.24 -486.59,-4.25 -696.86,-123.8 -210.26,-119.55 -385.93,-290.36 -558.99,-459.3 -392.93,-383.46 -1077.5,-1174.39 -1178.77,-1150.14 -44.64,10.75 153.24,415.8 237.69,558.63 260.96,440.65 505.28,749.1 881.41,1096.75 173.76,160.67 358.77,309.89 518.71,484.36 228.61,249.04 401.44,544.02 617.39,804.25 215.93,260.26 492.49,493.8 825.38,552.53 38.18,6.73 81.75,9.68 111.05,-15.6z"/>
  <path class="fil19" d="M10719.83 15962.4c75.11,-184.88 636.85,-840.75 745.32,-942.35 265.65,-249.01 437.44,-337.28 398.93,-370.93 -116.74,-102.31 -1020.91,503.84 -1380.3,950.48 -130.76,162.58 -255.87,330.32 -361.12,510.48 -358.54,613.94 -469.72,1367.77 -303.72,2059.07 64.03,266.15 189.47,546.97 438.88,659.55 21.83,9.91 46.41,18.42 69.68,11.92 35.8,-10.14 52.11,-50.43 63.66,-85.76 117.57,-362.56 227.78,-727.46 330.45,-1094.51 15,-53.65 30,-108.47 26.79,-164.09 -3.28,-59.2 -26.93,-115.19 -48.06,-170.58 -197.53,-518.98 -189.73,-848.92 19.49,-1363.28z"/>
  <path class="fil20" d="M8749.84 21185.57c35.66,-32.48 43.23,-84.69 47.48,-132.78 15.24,-169.98 15.24,-346.25 -46.44,-505.48 -86,-221.98 -280.55,-383.46 -483.15,-508.56 -202.49,-125.11 -422,-225.4 -604.74,-378.04 -170.81,-142.72 -385,-396.58 -548.38,-547.77 -163.25,-151.13 -516.7,-306.94 -515.19,-179.69 0.6,46.88 125.1,55.15 208.05,204.6 242.65,436.74 353.92,933.01 620.78,1355.35 266.99,422.43 721.67,789.15 1217.85,729.84 37.1,-4.39 76.08,-12.19 103.74,-37.47z"/>
  <path class="fil19" d="M11975.72 16699.44c335.47,-366.57 471.33,-862.01 616.16,-1337.49 68.78,-225.67 68.78,-325.36 107.62,-327.97 96.28,-6.5 77.26,276.67 10.89,733.26 -187.73,1290.85 -797.05,2336 -1414.08,3485.44 -112.58,209.79 -235.08,427.06 -434.59,557.22 -47.76,31.07 -109.77,56.83 -159.74,29.43 -32.38,-17.71 -50.19,-53.04 -63.89,-87.2 -155.01,-383.79 -20.69,-814.63 16.41,-1226.92 14.87,-166.09 14.3,-337.04 73,-493.23 53.98,-143.85 154.64,-264.94 257.18,-379.3 178.75,-199.31 369.06,-388.21 569.88,-565.29 143.19,-126.28 292.14,-247 421.16,-387.95z"/>
  <path class="fil19" d="M8191.98 16402.82c-244.18,-332.56 -592.65,-574.73 -956.98,-768.59 -116,-61.78 -333.73,-198.81 -295.69,-248.67 50.8,-66.64 484.92,148.01 716.72,251.85 156.28,70.19 313.17,140.58 460.61,228.01 410.61,243.25 732.99,608.49 1033.67,978.99 61.18,75.48 122.02,151.56 173.06,234.37 130.19,210.5 192.45,454.82 252.92,694.75 154.51,612.51 306.91,1271.6 82.11,1861.77 -112.71,8.17 -201.65,-90.11 -268.29,-181.57 -137.03,-188.29 -261.43,-386.87 -357.84,-599.04 -359.48,-791.03 -325.93,-1751.46 -840.29,-2451.87z"/>
  <path class="fil21" d="M9872.82 20268.27c94.03,2 188.16,4.01 282.19,5.92 3.32,-383.12 4.62,-825.04 -33.18,-1206.39 -33.42,-336.21 -66.74,-672.42 -100.06,-1008.62 -31.31,-315.55 -62.62,-631.67 -122.73,-943.09 -39.21,-203.07 -134.45,-534.08 -185.72,-734.54 -93.09,-362.79 -208.39,-518.27 -332.09,-871.72 -116.23,-332.06 -207.65,-522.97 -284.43,-512.82 -111.18,14.53 -99.73,500.9 -89.21,612.54 99.22,1046.3 366.34,1730.3 392.43,2780.98 8.27,328.07 -10.75,657.88 30,983.47 40.79,325.69 218.34,654.94 442.8,894.27z"/>
  <path class="fil20" d="M11268.68 21225.15c-44.44,-51.87 -40.52,-128.29 -32.48,-196.1 51.6,-434.62 169.14,-859.07 312.93,-1272.43 217,-624.09 587.36,-1462.23 1044.99,-1938.82 483.42,-503.34 1743.42,-813.56 1759.4,-675.22 4.12,36.6 -215.12,127.35 -397.76,251.85 -401.2,273.49 -780.74,528.29 -1032.73,943.19 -142.96,235.31 -224.23,501.83 -304.19,765.27 -131.27,432.35 -262.37,864.6 -393.64,1296.98 -63.66,209.79 -129.6,424.21 -260.6,600.01 -131,175.68 -342.23,308.08 -560.3,284.47 -50.33,-5.45 -102.77,-20.79 -135.62,-59.2z"/>
  <path class="fil21" d="M10550.42 21294.03c10.62,7.57 4.73,25.99 -7.1,31.31 -11.82,5.29 -25.51,1.78 -37.9,-1.67 -53.51,-88.34 -77.62,-194.19 -67.58,-296.96 63.66,-648.44 359.11,-1271.5 547.78,-1895.12 79.16,-261.67 158.89,-524.87 282.59,-768.59 89.65,-176.71 201.76,-341.3 317.52,-502.17 310.69,-431.54 655.17,-844.3 1073.02,-1173.21 417.72,-328.87 1413.11,-729.47 1443.01,-629.65 19.96,66.27 -784.29,619.74 -1107.87,999.31 -95.81,112.45 -187.36,228.69 -274.06,348.37 -642.28,885.76 -1014.78,1964.57 -1055.87,3057.78 -9.11,242.41 -7.94,503.47 -149.69,700.31 -155.44,215.82 -444.3,293.21 -710.32,290.59 -66.3,-0.6 -135.62,-6.36 -191.14,-42.39 -55.42,-36.17 -92.16,-58.84 -62.39,-117.91z"/>
  <path class="fil22" d="M9139.89 21436.85c-90.85,21.13 -185.68,13.83 -277.84,0.24 -98.28,-14.4 -199.64,-37.81 -275.96,-101.23 -56.83,-47.25 -94.87,-113.05 -127.12,-179.59 -181.09,-374.12 -207.92,-802.71 -331.82,-1199.53 -176.74,-565.63 -559.13,-1064.61 -1059.42,-1382.27 -103.98,-66.04 -326.66,-183.81 -287.92,-227.64 47.15,-53.41 997.77,270.4 1488.86,591.74 488.6,319.77 1014.04,906.32 1208.87,1456.71 68.85,194.66 107.59,407.07 59.77,608.02 -47.75,200.82 -196.33,386.54 -397.42,433.55z"/>
  <path class="fil20" d="M7579.58 17303.11c437.23,277.37 726.99,504.08 1138.25,818.79 160.06,122.39 318.59,248.2 456.69,394.91 480.1,510.47 669.1,1221.16 841.45,1900.3 69.12,272.55 -5.19,548.85 -44.87,827.19 -20.32,142.83 -67.34,305.84 -201.09,360.19 -137.02,55.52 -291.43,-37.1 -385.33,-151.46 -271.94,-331.25 -247.37,-804.02 -300.31,-1229.3 -128.05,-1030.49 -777.56,-1925.09 -1521.2,-2649.84 -121.79,-118.61 -332.32,-378.64 -306.34,-401.44 54.35,-47.86 261.7,91.92 322.75,130.66z"/>
  <path class="fil22" d="M11730.8 15767.24c-272.88,196.33 -506.56,493.23 -705.84,763.73 -440.51,598.14 -675.36,1072.92 -913.18,1776.64 -96.98,286.82 -192.18,685.28 -245.83,983.21 -111.88,624.36 -27.66,1265.23 56.93,1893.81 8.17,61.68 16.91,124.4 43.37,180.76 91.32,193.86 373.41,233.44 556.88,122.6 183.34,-110.91 280.55,-323.45 329.01,-532.17 146.14,-628.48 -55.66,-1280.34 -74.78,-1925.36 -18.55,-626.1 210.97,-1295.2 463.43,-1868.53 252.69,-573.19 923.09,-1519.9 901.49,-1555.69 -37.94,-63.09 -203.9,11.58 -411.48,161z"/>
  <path class="fil23" d="M8733.87 20007.3c-30.11,0 -60.48,-12.39 -85.86,-41.82 -93.7,-108.9 -133.62,-243.82 -215.63,-361.96 -85.39,-123.1 -182.26,-237.56 -295.45,-336.31 -215.12,-187.36 -485.86,-329.14 -679.95,-534.92 -8.77,-9.21 -4.25,-29.4 9.91,-29.4 0.71,0 1.41,0.1 2.11,0.24 352.52,47.11 648.68,189 920.52,420.66 201.99,172.25 510.44,456.22 485.66,747.56 -6.16,72.63 -73.13,135.95 -141.31,135.95z"/>
  <path class="fil24" d="M7917.32 20340.23c-12.99,0 -26.92,-2.01 -41.45,-6.16 -291.81,-84.12 -476.32,-335.98 -661.57,-557.69 -111.27,-133.38 -290.83,-319.1 -199.04,-504.58 4.02,-8.27 13.36,-12.76 22.57,-12.76 6.63,0 13.36,2.38 17.71,7.47 124.41,143.15 274.43,258.58 406.73,393.6 82.82,84.49 160.44,171.79 253.3,245.96 94.73,75.62 214.18,107.03 292.03,201.66 72.87,88.47 21.84,232.5 -90.28,232.5z"/>
  <path class="fil25" d="M8179.59 18556.29c-8.13,0 -16.91,-1.21 -26.12,-3.69 -326.26,-89.41 -594.09,-291.2 -820.09,-538.33 -224.33,-245.36 -449.02,-443.23 -565.62,-762.19 -3.89,-10.65 6.02,-19.63 15.74,-19.63 3.78,0 7.43,1.31 10.28,4.49 188.63,209.93 425.75,373.08 620.67,578.28 229.39,241.34 457.4,469.22 787.11,563.25 102.67,29.3 71.13,177.82 -21.97,177.82z"/>
  <path class="fil24" d="M9651.3 20703.23c-32.14,0 -64.73,-19.73 -79.63,-57.64 -119.18,-304.09 -79.6,-650.34 -171.05,-965.99 -70.76,-244.18 -153.8,-503 -297.93,-714.57 -167.03,-245.13 -386.87,-452.34 -603.3,-653.63 -145.43,-135.05 -324.89,-243.25 -421.5,-419.52 -10.41,-18.89 4.36,-38.28 22.54,-38.28 4.15,0 8.41,0.97 12.52,3.22 480.1,251.85 999.55,563.48 1276.69,1053.86 263.81,466.87 527.82,1206.63 338.21,1734.91 -13.93,38.88 -45,57.64 -76.55,57.64z"/>
  <path class="fil23" d="M11720.05 16102.04c-29.27,0 -56.46,-20.66 -59.41,-59.3 -2.14,-27.4 8.88,-52.44 27.9,-72.07 16.74,-17.01 34.59,-21.36 53.98,-32.71 6.73,-3.79 13.7,-5.56 20.56,-5.56 30.24,0 57.16,34.02 38.04,64.16l-8.17 34.96c-2.95,15.23 -8.37,29.77 -17.95,42.06 -14.9,19.25 -35.33,28.46 -54.95,28.46z"/>
  <path class="fil23" d="M10601.83 19550.61c-43.97,0 -87.81,-29.67 -91.93,-88.71 -40.51,-575.67 -40.88,-1193.3 159.84,-1740 167.63,-456.36 386.17,-1125.83 810.14,-1402.13 5.8,-3.78 11.96,-5.46 17.99,-5.46 22.3,0 42.39,23.18 35.89,46.68 -70.52,255.27 -246.66,469.46 -362.06,706.34 -128.55,263.68 -243.24,536.56 -334.46,815.71 -93.1,285.27 -150.12,572.22 -157.59,873.7 -5.79,233.33 30.24,473.27 13.96,705.16 -4.15,59.04 -47.98,88.71 -91.78,88.71z"/>
  <path class="fil26" d="M9822.25 18094.74c-26.72,0 -54.95,-13.73 -69.01,-35.46 -108.3,-167.04 -104.05,-369.06 -142.92,-561.95 -46.68,-232.63 -88.14,-464.86 -151.8,-693.57 -86.83,-312.47 -105.99,-649.61 -210.53,-954.65 -6.6,-19.12 9.81,-32.48 26.59,-32.48 4.12,0 8.37,0.84 12.29,2.61 114.59,54.09 170.58,147.18 206.01,267.93 64.26,218.64 144.96,430.94 210.29,649.14 108.43,362.43 331.59,956.42 175.17,1322.97 -10.61,24.94 -32.81,35.46 -56.09,35.46z"/>
  <path class="fil27" d="M10378.77 16962.52c-11.35,0 -22.8,-2.95 -32.95,-9.68 -196.23,-129.36 -142.25,-469.92 -89.31,-667.46 73.7,-274.76 215.59,-546.7 442.16,-722.61 7.47,-5.79 15.97,-8.27 24.21,-8.27 24.71,0 47.05,23.04 30.84,50.66 -55.99,95.81 -69.35,223.63 -121.09,325.7 -56.09,110.47 -112.34,224.36 -143.99,344.84 -35.33,134.79 -61.92,275.26 -46.91,415.11 10.74,101.49 27.89,129.86 4.72,221.14 -7.67,29.91 -37.68,50.57 -67.68,50.57z"/>
  <path class="fil25" d="M10103.17 15715.64c-9.44,0 -18.78,-4.49 -24.44,-13.97 -63.79,-108.8 -72.8,-249.71 -104.21,-370.33 -34.39,-131 -73,-269 -130.9,-391.86 -10.85,-23.04 7.93,-49.02 28.83,-49.02 7.2,0 14.63,3.08 21.26,10.41 154.98,172.22 380.28,569.98 234.75,800.8 -5.8,9.25 -15.61,13.97 -25.29,13.97z"/>
  <path class="fil27" d="M9063.24 17114.92c-8.74,0 -17.85,-2.82 -26.82,-9.45 -229.28,-169.04 -354.76,-437.67 -548.25,-641.81 -208.99,-220.44 -447.51,-410.41 -668.76,-617.63l5.32 -9.2c571.05,198 1001.66,670.87 1284.09,1196.21 18.55,34.53 -10.02,81.88 -45.58,81.88z"/>
  <path class="fil28" d="M12227.81 16890.45c-18.42,0 -29.77,-19.82 -27.29,-37.77 12.29,-88.74 69.68,-175.67 106.55,-256.37 40.76,-89.55 77.86,-180.5 121.93,-268.64 4.49,-8.97 11.69,-12.75 19.02,-12.75 14.4,0 29.53,14.66 26.45,32.01 -29.43,164.08 -43.13,479.87 -237.58,542.12 -3.19,0.93 -6.23,1.4 -9.08,1.4z"/>
  <path class="fil29" d="M11521.71 19725.58c-22.3,0 -45.01,-13.36 -53.61,-39.01 -127.25,-377.3 185.21,-857.77 367.38,-1171.04 6.39,-10.88 16.68,-15.5 27.16,-15.5 20.09,0 40.42,17.14 32.61,40.65 -62.48,188.06 -137.39,372.84 -194.32,562.68 -57.77,192.18 -69.59,392.57 -127.72,583.21 -8,26.25 -29.64,39.01 -51.5,39.01z"/>
  <path class="fil29" d="M12054.28 18234.85c-34.02,0 -65.23,-29.91 -70.05,-68.18 -30.01,-236.28 189.93,-519.78 328.17,-695.92 174.46,-222.32 348.73,-473.84 599.98,-612.31 4.86,-2.71 9.71,-3.88 14.2,-3.88 21.97,0 36.83,28.23 19.72,47.85 -188.19,215.22 -323.92,450.09 -481.4,686.01 -128.66,192.41 -203.9,466.13 -365.04,626.1 -14.3,14.3 -30.24,20.33 -45.58,20.33z"/>
  <path class="fil24" d="M12053.68 20352.15c-21.63,0 -42.29,-20.93 -38.51,-48.19 70.99,-512.95 204.37,-1081.65 410.85,-1559.98 199.65,-462.02 427.79,-816.17 865,-1073.49 4.11,-2.34 8.27,-3.51 12.05,-3.51 18.05,0 29.87,24.08 16.31,40.25 -333.86,394.47 -586.19,826.12 -739.76,1318.98 -140.58,451.87 -237.12,908.23 -494.63,1307.15 -8.64,13.23 -20.09,18.79 -31.31,18.79z"/>
  <path class="fil30" d="M12802.51 21005.18l-5916.38 0c-178.25,15.83 -370.09,234.74 -325.56,408.17 44.41,173.42 1300.76,3227.28 1648.89,4241 45.51,132.77 244.42,152.16 382.19,124.74 136.42,0.26 401.77,1.77 688.49,3.21 26.68,3.18 264.37,3.42 564.18,2.48 299.84,0.94 537.53,0.7 564.12,-2.48 286.68,-1.44 552.03,-2.95 688.45,-3.21 137.64,27.42 336.81,8.03 382.29,-124.74 348.16,-1013.72 1604.52,-4067.58 1649.06,-4241 44.53,-173.43 -147.35,-392.34 -325.73,-408.17z"/>
  <path class="fil31" d="M8458.87 25789.43l-0.47 -0.03 -5.02 -0.2 -2.24 -0.14c-7.27,-0.36 -14.57,-0.93 -21.77,-1.64l-3.18 -0.3 -4.02 -0.43c-7.2,-0.81 -14.33,-1.74 -21.43,-2.88l-1.41 -0.2 -5.29 -0.91 -0.37 -0.07c-13.96,-2.44 -27.66,-5.52 -40.92,-9.34l-0.26 -0.1c-6.6,-1.91 -13.06,-3.95 -19.39,-6.23l-0.24 -0.1 -4.55 -1.67 -1.81 -0.71 -12.26 -4.98 -0.16 -0.11c-4.09,-1.8 -8.11,-3.65 -12.03,-5.62l-1.3 -0.64 -4.36 -2.24 -0.16 -0.1c-3.82,-2.04 -7.6,-4.19 -11.29,-6.43l-1.24 -0.74 -4.08 -2.58 -0.14 -0.1 -5.29 -3.55 -2.51 -1.74 -2.68 -1.94 -4.92 -3.75 -0.1 -0.1 -4.55 -3.68 -0.34 -0.27 -2.28 -1.98 -2.44 -2.14 -1.07 -0.97 -3.42 -3.22 -0.07 -0.1m-19.89 -23.14l-0.3 -0.43 -0.87 -1.24 -2.61 -3.89 0 -0.03 -2.48 -3.95 -0.84 -1.41 -1.54 -2.68 -1.54 -2.81 -0.13 -0.3 -2.75 -5.32 0 -0.04 -2.68 -5.79 -2.17 -5.22 -0.3 -0.78 -0.57 -1.5 -1.68 -4.62c-348.13,-1013.72 -1604.48,-4067.58 -1648.89,-4241l-0.2 -0.81 -0.2 -0.8 -0.2 -0.84c-30.84,-126.61 63.02,-276.63 185.05,-354.26l0.87 -0.53m15.57 -9.38l0.84 -0.47c18.25,-10.34 37,-19.05 55.95,-25.81l0.88 -0.31 0.53 -0.2 7.74 -2.58 0.4 -0.13 7.3 -2.21 0.74 -0.23 5.02 -1.41 3.38 -0.9 1.81 -0.44 5.22 -1.27 2.38 -0.5c5.09,-1.14 10.15,-2.11 15.24,-2.92l0.5 -0.1 1.67 -0.27 6.7 -0.9 8.37 -0.9 2262.03 0c6.4,119.34 20.1,238.76 32.49,354.19 26.72,246.76 53.27,493.56 80,740.32 51.13,473.84 102.4,947.81 172.82,1419.17 64.13,428.93 144.23,855.29 224.33,1281.51 35.19,187.69 70.76,376.72 140.81,554.4 61.55,156.29 149.32,301.25 256.58,430.48l-3.05 0 -3.05 0 -3.04 0 -24.85 -0.04 -3.12 0 -19.02 -0.03 -3.21 0 -32.45 -0.07 -3.28 0 -3.28 0 -6.6 -0.03 -3.32 0 -3.34 0 -6.67 -0.03 -3.35 0 -3.35 0 -6.69 -0.04 -3.38 0 -3.39 0 -3.38 -0.03 -3.41 0 -3.39 0 -3.41 -0.03 -3.38 0 -0.04 0 -3.41 0 -3.42 0 -3.42 -0.04 -3.44 0 -3.45 0 -3.45 -0.03 -3.45 0 -3.45 0 -0.03 0 -3.45 -0.04 -3.49 0 -3.48 0 -3.48 -0.03 -3.48 0 -3.52 0 -3.48 -0.03 -3.52 0 -4.49 0 -4.48 0.03 -4.49 0 -0.54 0 -3.91 0.03 -4.49 0 -4.42 0.04 -1.11 0 -3.35 0 -4.42 0 -4.42 0.03 -1.6 0 -2.82 0 -4.38 0.04 -4.39 0 -2.14 0 -2.25 0 -4.35 0.03 -4.35 0 -2.65 0 -1.71 0 -4.32 0.03 -4.32 0 -3.14 0 -1.18 0 -4.28 0.04 -4.29 0 -3.65 0 -0.63 0 -4.26 0.03 -4.25 0 -4.15 0 -0.1 0 -4.22 0 -4.22 0.03 -4.19 0 -0.43 0 -3.75 0 -4.19 0 -8.3 0.04 -4.16 0 -4.12 0 -1.4 0 -2.71 0 -4.09 0.03 -4.08 0 -1.91 0 -2.18 0 -4.05 0 -4.05 0 -2.38 0 -1.64 0 -4.02 0.03 -4.02 0 -2.85 0 -1.13 0 -3.96 0 -3.98 0 -3.28 0 -0.64 0 -3.95 0 -3.92 0 -11.65 0.04 -3.85 0 -0.3 0 -3.52 0 -3.85 0 -3.78 0 -0.81 0 -3.01 0 -3.75 0 -3.79 0 -1.24 0 -2.51 0 -3.71 0 -3.72 0 -1.68 0 -2 0 -3.69 0 -5.79 0 -1.98 0 -7.67 0 -1.67 0 -5.93 0 -5.19 0 -2.34 0 -7.47 0 -1.17 0 -13.5 -0.04 -7.2 0 -0.73 0 -6.4 0 -4.05 0 -2.98 -0.03 -6.97 0 -0.3 0 -6.56 0 -3.52 0 -3.28 -0.03 -6.6 0 -0.1 0 -6.59 -0.04 -3.02 0 -3.51 0 -5.96 -0.03 -0.47 0 -6.33 -0.03 -2.51 0 -3.72 0 -5.39 -0.04 -0.77 0 -6.03 -0.03 -2.08 0 -3.88 0 -4.79 -0.03 -1.07 0 -5.76 -0.04 -1.64 -0.03 -4.02 0 -4.22 -0.04 -1.34 0 -5.46 -0.03 -1.24 -0.03 -4.08 0 -3.72 -0.04 -1.54 0 -5.16 -0.03 -0.87 -0.03 -4.15 -0.04 -3.18 -0.03 -1.74 0 -4.82 -0.03 -0.54 -0.04 -4.18 -0.03 -2.68 -0.03 -1.91 0 -4.49 -0.04 -0.23 -0.03 -4.12 -0.03 -8.41 -0.1 0 -0.04 -4.05 -0.03 -1.84 -0.03 -19.83 -0.34 -1.13 -0.03 -2.05 -0.04 -10.88 -0.3 -0.64 0 -2.54 -0.07 -0.57 -0.03 -3.48 -0.13 -0.67 0 -4.19 -0.17 -1.24 -0.07 -0.63 -0.03 -1.78 -0.07 -0.2 -0.03 -1.41 -0.07 -0.9 -0.06 -0.57 -0.04 -1.37 -0.1 -0.07 0 -1.14 -0.1 -0.57 -0.07 -0.47 -0.03 -0.93 -0.1c-286.72,-1.44 -552.07,-2.95 -688.49,-3.21l-1.61 0.3 -1.61 0.33 -1.64 0.3 -1.61 0.3 -0.03 0 -1.61 0.31 -1.64 0.3 -1.64 0.26 -1.64 0.31 -0.07 0.03 -1.57 0.23 -1.67 0.31 -1.64 0.26 -1.68 0.27 -0.1 0.03 -1.57 0.24 -1.68 0.23 -1.67 0.27 -1.71 0.27 -0.1 0.03 -1.57 0.2 -1.71 0.24 -1.68 0.23 -1.7 0.24 -0.17 0.03 -1.54 0.2 -1.71 0.24 -1.71 0.2 -1.74 0.23 -0.17 0.03 -1.54 0.17 -1.74 0.2 -1.71 0.2 -1.74 0.2 -0.2 0.04 -1.54 0.17 -1.74 0.16 -1.74 0.17 -1.74 0.2 -0.24 0.04 -1.5 0.13 -1.75 0.17 -1.77 0.16 -1.74 0.14 -0.27 0.03 -1.51 0.14 -1.77 0.13 -1.74 0.13 -1.78 0.14 -0.3 0.03 -1.47 0.1 -1.78 0.13 -3.55 0.24 -0.33 0 -1.44 0.1 -1.78 0.1 -1.8 0.1 -1.78 0.1 -0.33 0 -3.25 0.17 -1.78 0.07 -8.97 0.3 -0.44 0c-11.88,0.3 -23.87,0.23 -35.83,-0.24"/>
  <path class="fil32" d="M10849.76 25366.56c138.34,-162.18 298.07,-308.91 431.08,-488.34 205.91,-277.64 311.63,-657.78 403.45,-987.25 150.25,-538.94 322.14,-1099.94 394.54,-1655.29 88.37,-676.67 -967.5,-910.94 -1260.38,-341.4 -260.46,506.89 -285.74,1189.59 -355.46,1742.35 -39.21,311.03 -66.27,621.15 -46.88,934.42 9.07,149.35 50.43,301.85 80.43,448.32 10.18,49.16 76.32,254.37 73.98,231.66 12.85,127.02 176.84,235.58 279.24,115.53z"/>
  <path class="fil33" d="M7484.61 21314.83c-32.38,-24.72 -70.99,-47.25 -111.28,-41.12 -27.19,4.25 -50.43,20.93 -72.3,37.43 -161.37,122.53 -305.26,268.17 -425.88,430.98 -17.72,23.98 -35.56,55.99 -20.56,81.74 14.66,25.05 80.47,31.78 109.4,32.15 301.25,3.41 534.08,31.64 769.66,4.35 20.66,-2.38 42.76,-3.31 60.01,-15 26.32,-17.72 34.25,-54.35 27.39,-85.43 -6.97,-31.04 -232,-365.74 -336.44,-445.1z"/>
  <path class="fil33" d="M8698.67 21258.7c-33.18,-25.28 -72.66,-48.18 -112.58,-40.51 -26.92,5.19 -49.86,23.5 -71.13,41.82 -157.59,134.78 -296.99,293.68 -412.52,470.15 -17.01,26.02 -33.89,60.38 -18.05,87.44 15.34,26.22 81.27,31.54 110.34,31.07 301.21,-4.72 534.88,18.79 769.49,-16.91 20.7,-3.04 42.66,-4.72 59.54,-17.58 25.79,-19.62 32.62,-58.73 24.81,-91.55 -7.9,-32.85 -243.11,-382.42 -349.9,-463.93z"/>
  <path class="fil33" d="M9963.9 21244.41c-33.22,-25.29 -72.66,-48.09 -112.48,-40.39 -27.06,5.06 -49.86,23.51 -71.23,41.83 -157.58,134.78 -296.99,293.54 -412.42,470.15 -17.01,25.88 -33.89,60.38 -18.05,87.43 15.34,26.09 81.27,31.55 110.34,31.05 301.21,-4.73 534.78,18.78 769.39,-16.88 20.66,-3.08 42.63,-4.72 59.54,-17.62 25.75,-19.72 32.62,-58.8 24.82,-91.55 -7.94,-32.82 -243.12,-382.52 -349.91,-464.02z"/>
  <path class="fil34" d="M7873.26 21543.88c19.62,15 43.03,28.6 66.63,24.11 15.94,-3.08 29.54,-14.07 42.2,-24.82 93.19,-79.86 175.77,-173.89 244.15,-278.3 10.05,-15.51 19.99,-35.94 10.65,-51.77 -9.11,-15.58 -48.09,-18.79 -65.33,-18.56 -178.25,2.85 -316.59,-10.98 -455.52,10.05 -12.29,1.91 -25.29,2.85 -35.33,10.41 -15.11,11.69 -19.26,34.83 -14.64,54.22 4.72,19.49 144,226.47 207.19,274.66z"/>
  <path class="fil34" d="M9150.41 21541.53c19.62,15.01 43,28.57 66.64,24.08 15.94,-3.05 29.53,-14.06 42.16,-24.81 93.22,-79.84 175.8,-173.87 244.18,-278.31 10.05,-15.47 19.96,-35.8 10.65,-51.74 -9.11,-15.6 -48.09,-18.79 -65.33,-18.55 -178.29,2.85 -316.62,-10.98 -455.52,10.05 -12.29,1.87 -25.28,2.81 -35.23,10.38 -15.24,11.68 -19.36,34.86 -14.63,54.21 4.62,19.52 143.89,226.47 207.08,274.69z"/>
  <path class="fil34" d="M10444.1 21517.89c19.63,15 42.9,28.47 66.64,23.98 15.94,-3.08 29.54,-13.93 42.16,-24.82 93.2,-79.73 175.67,-173.76 244.05,-278.3 10.05,-15.37 20.1,-35.8 10.75,-51.74 -9.07,-15.47 -48.18,-18.69 -65.3,-18.45 -178.28,2.84 -316.61,-11.09 -455.55,10.04 -12.16,1.78 -25.25,2.72 -35.3,10.42 -15.23,11.55 -19.25,34.82 -14.66,54.21 4.72,19.36 144.02,226.47 207.21,274.66z"/>
  <path class="fil34" d="M11699.99 21508.45c19.59,15 42.86,28.46 66.51,23.98 16.07,-3.09 29.53,-13.94 42.29,-24.82 93.19,-79.73 175.67,-173.76 244.05,-278.31 10.18,-15.37 20.09,-35.79 10.75,-51.77 -9.07,-15.57 -48.09,-18.75 -65.33,-18.42 -178.25,2.85 -316.59,-11.08 -455.52,9.92 -12.29,1.91 -25.29,2.84 -35.43,10.51 -15.24,11.59 -19.16,34.76 -14.53,54.25 4.62,19.36 143.99,226.34 207.21,274.66z"/>
  <path class="fil34" d="M6771.54 21570c9.95,22.67 42.9,28.46 66.64,23.97 15.94,-3.08 57.43,-24.91 90.61,-58 86.84,-86.83 127.22,-140.57 195.73,-245.12 10.05,-15.37 20,-35.8 10.65,-51.77 -9.1,-15.47 -48.18,-17.95 -65.33,-18.42 -131.7,-3.65 -239.8,-3.08 -261.2,0.61 -12.29,2.01 -59.87,1.87 -74.07,58.7 -18.89,75.85 9.44,227.54 36.97,290.03z"/>
  <path class="fil34" d="M12952.9 21499.01c-9.91,22.53 -42.86,28.46 -66.51,23.97 -16.07,-3.21 -57.53,-25.05 -90.71,-58.13 -86.83,-86.83 -127.25,-140.58 -195.63,-245.02 -10.05,-15.47 -20.09,-35.77 -10.75,-51.84 9.07,-15.47 48.19,-17.95 65.33,-18.32 131.71,-3.78 239.8,-3.18 261.3,0.47 12.19,2.01 59.91,1.88 74.07,58.84 18.92,75.84 -9.44,227.4 -37.1,290.03z"/>
  <path class="fil33" d="M11243.4 21230.24c-33.19,-25.28 -72.67,-48.19 -112.58,-40.52 -27.06,5.19 -49.87,23.61 -71.23,41.83 -157.59,134.88 -296.89,293.68 -412.42,470.15 -17.01,25.99 -33.79,60.48 -17.95,87.43 15.23,26.22 81.27,31.55 110.2,31.18 301.25,-4.85 534.82,18.79 769.53,-16.88 20.79,-3.21 42.66,-4.72 59.67,-17.74 25.62,-19.59 32.62,-58.71 24.82,-91.56 -8.04,-32.71 -243.39,-382.38 -350.04,-463.89z"/>
  <path class="fil33" d="M12447.05 21220.8c-33.05,-25.29 -72.53,-48.22 -112.58,-40.52 -26.93,5.19 -49.73,23.61 -71.1,41.79 -157.49,134.82 -296.89,293.71 -412.42,470.19 -17.01,25.98 -33.89,60.47 -18.08,87.43 15.5,26.22 81.3,31.51 110.34,31.04 301.14,-4.72 534.81,18.79 769.42,-16.77 20.66,-3.18 42.63,-4.72 59.54,-17.72 25.85,-19.59 32.62,-58.7 24.82,-91.55 -7.81,-32.72 -243.25,-382.39 -349.94,-463.89z"/>
  <path class="fil1" d="M11510.26 23534.57c138.7,-298.4 285.3,-604.51 378.63,-920.62 57.63,-194.93 -253.63,-280.12 -303.39,-83.65 -79.13,312.83 -152.5,633.2 -197.04,952.86 -9.34,67.81 87.07,126.28 121.8,51.41z"/>
  <path class="fil35" d="M3112.24 22697.93c-107.49,31.55 -232.84,-55.05 -241.24,-166.8 -66.14,-872.29 -181.33,-1408.75 -373.88,-2262.16 -38.41,-169.75 -459.44,-1740.44 -457.66,-2216.42 1.3,-321.91 33.45,-669.81 245.49,-911.98 70.99,-81.04 171.42,-149.69 278.44,-137.63 124.87,14.16 211.23,130.16 267.69,242.41 104.08,206.61 160.54,433.32 216.19,657.78 158.63,639.93 160.77,1615.23 250.69,2268.39 51.83,376.86 248.77,2247.13 170.44,2377.1 -78.42,129.82 -210.63,106.78 -356.16,149.31z"/>
  <path class="fil36" d="M4687.66 17610.62c134.82,56.83 226.37,189.6 265.92,330.41 39.48,140.82 33.92,290.13 21.16,435.8 -58.6,672.65 -260.13,1326.18 -329.48,1997.76 -26.45,256.1 -33.55,514.02 -55.89,770.46 -32.58,371.67 -97.34,740.36 -193.48,1100.68 -45.71,171.15 -101.13,345.51 -215.02,481.03 -82.21,97.69 -232,171.42 -333.26,93.57 -41.69,-32.02 -64.13,-82.82 -81.84,-132.31 -144.97,-403.92 -87.81,-847.62 -62.86,-1275.98 60.95,-1051.15 -82.48,-2128.42 197.88,-3143.44 51.73,-187.36 121.42,-377.06 256.71,-516.7 135.38,-139.5 351.07,-216.89 530.16,-141.28z"/>
  <path class="fil37" d="M2156.53 20413.8c75.24,-60.48 173.66,-85.63 269.93,-91.55 84.36,-5.06 173.53,4.85 242.78,53.17 70.63,49.13 110.58,130.53 145.3,209.33 256.95,583.34 388.65,1221.5 383.46,1858.95 -0.6,80.94 -3.65,163.28 -29.4,239.93 -46.32,137.5 -168.71,246.57 -310.59,276.81 -141.89,30.23 -298.17,-19.39 -396.69,-125.95 -94.26,-101.93 -132.2,-242.51 -162.07,-378.13 -26.22,-119.45 -48.69,-239.6 -71.23,-359.72 -62.75,-335.5 -125.61,-671.14 -188.43,-1006.64 -22.1,-118.48 -44.3,-238.63 -34.16,-358.65 10.18,-120.15 57.06,-242.17 151.1,-317.55z"/>
  <path class="fil38" d="M3759.27 19165.95c-136.46,-64.73 -306.94,-16.65 -418.22,85.32 -111.37,101.94 -194.92,243.58 -211.1,393.61 -59.3,548.27 -10.51,1117.65 77.63,1673.73 59.07,372.48 93.79,824.68 111.98,1201.41 7.19,149.21 19.72,234.61 116.36,348.49 15.84,18.66 132.54,73.47 251.62,-2.24 139.41,-88.71 138.1,-312.56 173.2,-551.93 36.13,-246.9 80.43,-574.46 108.19,-822.57 66.54,-594.19 73.84,-1203.18 35.23,-1799.98 -13.13,-202.86 -61.32,-438.78 -244.89,-525.84z"/>
  <path class="fil39" d="M5285.2 19888.12c38.74,30.34 61.18,76.79 78.32,122.87 50.43,136.42 65.67,283.96 61.18,429.4 -11.68,380.88 -153.94,744.14 -298.4,1096.76 -146.97,358.64 -298.3,715.54 -454.11,1070.54 -40.52,92.25 -82.45,186.42 -151.66,259.42 -69.26,73.1 -172.26,122.39 -270.78,101.46 -173.53,-166.79 -151.23,-445.47 -116,-683.63 48.66,-329.38 97.35,-658.72 146.01,-988.06 40.51,-274.19 81.87,-551.7 189.6,-807 107.72,-255.4 290.73,-490.25 544.49,-601.76 87.07,-38.27 196.34,-58.46 271.35,0z"/>
  <path class="fil40" d="M2858.61 19366.67l34.36 0c203.9,-131 84.35,-598.34 67.34,-797.29 -16.78,-197.04 -34.36,-389.95 -72.17,-583.94 -21.23,-109.37 -129.09,-702.49 -334.29,-703.93l-3.99 0c-33.59,1.04 -69.68,17.95 -108.4,55.15 -31.54,30.34 -41.92,76.56 -31.31,118.25 10.65,41.45 41.26,71.73 81.78,83.88 15.81,24.92 25.75,53.38 35.9,80.8 56.46,151.33 88.37,313.54 119.44,471.6 36.14,184.18 47.35,370.7 63.66,557.45 16.41,188.33 -37.33,603.8 147.68,718.03z"/>
  <path class="fil41" d="M4290.74 20174.37c-24.81,0 -49.03,-21.27 -43.84,-55.19 74.45,-490.48 171.06,-979.69 206.38,-1474.55 5.7,-80.21 67.71,-120.96 128.66,-120.96 60.38,0 119.68,39.92 121.93,120.96 15.1,534.91 -181.47,1010.89 -370.97,1498.29 -8.37,21.74 -25.38,31.45 -42.16,31.45z"/>
  <path class="fil41" d="M4636.29 18229.52c-27.43,0 -54.72,-14.9 -59.67,-44.53l-3.32 -19.86c-1.51,-3.18 -3.75,-7.9 -4.12,-8.37l-11.22 -15.74 -8.27 -20.66 -0.94 -1.31 1.55 4.86 -9.58 -13.83c-1.07,-1.88 -1.91,-3.42 -2.25,-4.36l-5.42 -6.96c-23.88,-40.79 -21.87,-87.2 0.1,-128.42 20.56,-38.98 61.92,-58.37 103.14,-58.37 41.22,0 82.58,19.39 103.14,58.37 21.5,40.28 25.98,103.37 -6.77,141.28 2.01,-2.25 2.85,-3.79 2.62,-3.79 -0.37,0 -2.35,2.01 -6.03,6.87 -0.57,0.7 -1.17,1.64 -1.78,2.47 -1.4,1.41 -2.81,2.58 -4.25,3.89 0.47,-1.88 1.44,-4.59 2.71,-8.37 -1.03,3.08 -2.24,6.13 -3.51,9.07 0,-0.1 0.1,-0.1 0.1,-0.23 0,0.13 -0.1,0.13 -0.1,0.23 -6.4,14.44 -14.67,26.26 -21.87,40.66 -0.47,1.07 -0.94,1.87 -1.41,2.71 0,0.94 -0.23,2.24 -0.5,4.02l-2.71 15.84c-4.96,29.63 -32.25,44.53 -59.64,44.53zm-84.59 -106.55l0 0zm169.98 -0.71l0 0 0 0zm0.47 -0.36l0 0 0 0zm-173.76 -3.65c0.36,0.33 0.7,0.8 0.93,1.27l-2.71 -6.83 1.78 5.56zm174.26 6.26c-0.37,0 -0.23,-0.97 0.57,-3.45 1.54,-1.31 2.95,-2.58 4.25,-3.78 -2.24,3.31 -4.35,7.23 -4.82,7.23zm-0.13 -2.98c0.13,0 0.13,0 0.23,-0.1 -0.1,0.1 -0.1,0.1 -0.23,0.1zm0.23 -0.1c0.14,0 0.14,-0.14 0.24,-0.24 -0.1,0.1 -0.1,0.24 -0.24,0.24zm0.24 -0.24c0.13,0 0.13,-0.13 0.23,-0.13l0 0c-0.1,0 -0.1,0.13 -0.23,0.13zm4.48 -3.91c0,0 0,0 0,-0.11 1.91,-1.77 3.55,-3.65 5.19,-5.55 -1.27,1.54 -3.04,3.55 -5.19,5.66z"/>
  <path class="fil42" d="M3691.09 21453.97c-15.7,0 -30.37,-7.67 -38.37,-26.46 -75.85,-179.32 -29.91,-346.49 -17.85,-535.15 11.21,-173.06 21.5,-347.29 22.67,-520.85 1.67,-209.8 33.18,-587.7 -134.79,-743.18 -88.84,-82.21 -8.27,-214.51 91.92,-214.51 19.73,0 40.39,5.19 60.48,16.87 230.22,134.32 231.53,541.32 238.16,771.91 12.05,415.7 -12.06,823.04 -164.22,1212.29 -8.51,21.83 -34.36,39.08 -58,39.08z"/>
  <path class="fil43" d="M4607.83 22210.5c-35.7,0 -66.88,-32.25 -58.61,-75.35 53.75,-279.04 210.17,-543.65 318.83,-803.68 144.13,-345.05 212.07,-696.29 216.09,-1070.54 0.94,-83.38 66.14,-125.21 130.87,-125.21 64.76,0 128.89,41.7 127.82,125.21 -5.06,403.92 -74.18,799.53 -240.4,1169.43 -114.33,254.33 -235.79,576 -452.31,763.5 -13.36,11.58 -28.13,16.64 -42.29,16.64z"/>
  <path class="fil44" d="M2802.95 21584.4c-13.46,0 -26.92,-6.27 -33.55,-19.26 -72.06,-141.51 -95.57,-320.73 -150.12,-470.99 -41.26,-113.52 -91.82,-358.78 -244.32,-358.78 -6.03,0 -12.29,0.37 -18.79,1.17 -6.36,0.84 -12.39,1.21 -18.31,1.21 -146.47,0 -138.57,-240.17 18.31,-259.92 14.54,-1.75 28.7,-2.72 42.43,-2.72 230.12,0 364.3,244.56 427.53,440.66 55.62,172.96 104.64,479.86 11.68,649.37 -6.96,12.66 -21.03,19.26 -34.86,19.26z"/>
  <path class="fil6" d="M6421.17 23465.32c-113.52,-474.41 -502.3,-917.17 -984.88,-988.07 -396.45,-58.23 -3065.95,-58.23 -3462.4,0 -482.58,70.9 -871.23,513.66 -984.75,988.07 -113.65,474.3 88.84,1020.1 508.67,1268.31 198.11,117.17 430,167.03 629.65,281.62 185.85,106.66 339.29,268.87 435.46,460.38 51.74,103.1 95.44,223.49 198.68,274.99 51.3,25.75 110.24,29.91 167.53,32.99 158.53,8.23 512.92,6.26 776.03,5.19 263.07,1.07 617.49,3.04 776.02,-5.19 57.29,-3.08 116.23,-7.24 167.5,-32.99 103.24,-51.5 147.07,-171.89 198.81,-274.99 96.07,-191.51 249.51,-353.72 435.33,-460.38 199.65,-114.59 431.44,-164.45 629.65,-281.62 419.86,-248.21 622.35,-794.01 508.7,-1268.31z"/>
  <g>
   <path class="fil45" d="M3862.41 25789.47l-1.54 -0.04 -3.89 0 -21.66 -0.06 -1.24 -0.04 -4.12 0 -16.11 -0.06 -5.32 0 -1.01 -0.04 -4.32 0 -5.32 -0.03 -26.32 -0.1 -3.21 -0.04 -2.01 0 -5.19 -0.03 -5.19 0 -0.47 -0.03 -4.69 0 -5.16 -0.04 -2.91 0 -2.21 0 -5.13 -0.03 -5.09 -0.03 -0.23 0 -4.82 0 -5.06 -0.04 -2.64 0 -2.38 -0.03 -5.02 0 -4.99 -0.03 -4.99 0.03 -5.03 0 -2.37 0.03 -2.65 0 -5.06 0.04 -4.82 0 -0.27 0 -5.09 0.03 -5.12 0.03 -2.18 0 -2.94 0 -5.16 0.04 -4.66 0 -0.5 0.03 -5.19 0 -5.22 0.03 -1.94 0 -3.29 0.04 -26.32 0.1 -5.32 0.03 -4.25 0 -1.08 0.04 -5.32 0 -16.11 0.06 -4.05 0 -1.3 0.04 -21.67 0.06 -3.85 0 -1.58 0.04c-93.29,0.36 -190.37,0.57 -281.52,0.23l-1.61 -0.03 -3.28 0 -28.93 -0.14 -4.79 0 -2.08 -0.03 -2.67 0 -4.76 -0.03 -4.75 -0.04 -0.64 -0.03 -4.09 0 -4.68 -0.03 -3.96 -0.04 -0.73 0 -4.69 -0.03 -4.66 -0.03 -2.54 -0.04 -2.11 0 -4.62 -0.03 -4.59 -0.04 -1.17 0 -3.42 -0.03 -4.58 -0.07 -4.36 -0.03 -0.2 0 -4.52 -0.03 -4.52 -0.04 -2.98 -0.03 -1.54 -0.03 -4.45 -0.04 -4.46 -0.06 -1.64 0 -2.81 -0.04 -4.42 -0.06 -4.39 -0.04 -0.3 0 -4.09 -0.06 -4.35 -0.04 -3.35 -0.03 -0.97 -0.04 -8.6 -0.1 -2.01 0 -19.09 -0.33 -3.65 -0.03 -0.47 -0.04 -4.12 -0.06 -12.22 -0.21c185.58,-48.89 345.08,-206.24 481.17,-330.64 101.83,-92.86 203.16,-133.52 300.74,-133.52 143.66,0 278.92,88.14 394.35,226.94 66.63,80.24 153,171.32 256.81,202.73 28.49,8.61 56.02,15.37 82.71,20.2l-1.48 0.3 -0.03 0 -1.51 0.27 -3.01 0.56 -0.7 0.14 -0.84 0.13 -3.01 0.5 -1.48 0.27 -0.03 0 -1.54 0.24 -1.51 0.23 -1.54 0.24 -0.67 0.13 -0.84 0.1 -1.5 0.23 -0.34 0.07 -4.25 0.57 -1.07 0.17 -0.47 0.03 -4.59 0.6 -0.3 0.07 -7.37 0.84 -0.67 0.1 -0.83 0.07 -9.95 1 -0.84 0.07 -1.54 0.13 -0.3 0.04 -1.2 0.1 -1.51 0.13 -0.03 0 -1.54 0.13 -1.11 0.1 -9.68 0.74 -1.14 0.1 -0.4 0 -1.54 0.1 -0.73 0.07 -0.81 0.03 -4.62 0.3 0 0.04 -1.54 0.06 -1.14 0.1 -0.4 0 -1.54 0.1 -0.77 0.07 -0.77 0.04 -1.54 0.1 -0.37 0.03 -1.17 0.03 -1.54 0.1 -1.54 0.1 -1.14 0.07 -0.4 0 -1.54 0.1 -0.74 0.03 -0.8 0.04 -1.51 0.1 -0.4 0.03 -1.14 0.07 -1.54 0.07 -4.49 0.23 -3.08 0.13 -1.51 0.1 -4.65 0.21 -1.71 0.06 -3.08 0.14 -4.89 0.23 -0.13 0 -4.82 0.2 -3.59 0.14 -1.47 0.06 -7.2 0.24 -3.22 0.13 -14.83 0.47 -1.44 0.07 -5.59 0.16 -2.38 0.07 -3.28 0.1 -5.76 0.17 -0.57 0c-28.9,0.77 -60.75,1.41 -94.8,1.87l-1.38 0c-38.44,0.51 -79.66,0.88 -122.62,1.11l-0.24 0.03c-102.53,0.54 -214.88,0.27 -322.04,-0.06zm-359.18 -3355.55l-13.26 0.04 -19.26 0.06 -32.48 0.14 -19.45 0.1c-69.12,0.33 -137.6,0.73 -205.11,1.34l-5.63 0.06 -25.91 0.24 -31.42 0.27 -11.62 0.13 -19.58 0.2 -31.05 0.34 -17.44 0.2 -13.43 0.13 -30.68 0.37 -23.07 0.3 -7.37 0.1 -30.23 0.4 -28.5 0.4 -1.51 0 -29.77 0.44 -29.5 0.47 -4.22 0.07 -25.05 0.4 -28.96 0.5 -9.71 0.17 -19.02 0.33 -28.44 0.54 -14.9 0.27 -13.22 0.26 -27.8 0.57 -19.89 0.41 -7.63 0.16 -27.16 0.61 -24.58 0.56 -2.24 0.04 -26.53 0.63 -26.12 0.64 -2.78 0.1 -48.38 1.27 -7.54 0.2 -17.44 0.51 -72.6 2.21 -16.08 0.53 -7.26 0.24 -22.94 0.8 -19.79 0.7 -2.68 0.1 -22.04 0.84 -21.56 0.84 -1.54 0.07 -19.53 0.8 -60.31 2.68 -8.8 0.43 -10.25 0.51 -18.55 0.97 -11.82 0.63 -6.23 0.34 -31.78 1.84 -2.61 0.13 -16.34 1.04 -15.81 1.04 -0.57 0.03 -1.4 0.1 -27.23 1.98 -0.6 0.03 -3.28 0.24 -2.78 0.23 -21.33 1.74 -5.5 0.47 -0.67 0.07 -18.75 1.74 -7.13 0.7 -0.3 0.04 -22 2.44 -1.18 0.14 -1.9 0.23 -18.32 2.44c5.66,-0.87 11.72,-1.64 18.32,-2.44l1511.02 -40.89zm-2524.03 1077c-37.98,194.09 -24.41,398 34.02,587.06l0.27 0.94c8.91,28.73 18.82,57.06 29.8,85.06l0.14 0.26c5.42,13.87 11.11,27.63 17.04,41.29l0.4 0.91c5.86,13.43 11.96,26.75 18.29,39.98l0.7 1.47 0.43 0.91 9.65 19.52 1.17 2.28c105.38,-0.57 206.48,-47.12 303.93,-158.63 84.22,-96.27 183.81,-180.76 307.51,-223.05 107.72,-36.84 216.19,-59.31 322.04,-59.31 137.36,0 270.27,37.71 391.59,129.96 108.47,82.58 165.63,211.57 266.39,301.12 82.24,73.13 162.81,102.67 240.77,102.67 145.2,0 281.76,-102.07 405.19,-215.59 -12.86,-36.27 -24.55,-73.04 -35.06,-110.01 -98.89,-350.37 -92.39,-723.91 -31.45,-1082.79 23.88,-140.11 56.97,-281.66 129.5,-403.78 30.1,-50.57 67.88,-97.69 111.71,-137.27l-2524.03 1077zm207.28 936.09c12.32,17.05 25.12,33.69 38.38,49.97l0.36 0.47 0.94 1.13 10.42 12.53 3.11 3.72 0.37 0.43 14.23 16.34 0.24 0.27 3.38 3.78 7.26 8.04 3.65 3.99 0.88 0.97 2.81 3.01 11.18 11.79 1.54 1.61 2.25 2.31 11.38 11.55 2.25 2.24 1.6 1.58 14.6 14.16 0.97 0.94 15.44 14.3 0.14 0.13 0.33 0.3 16.21 14.44 0.37 0.3 16.14 13.76 1.07 0.9 0.2 0.17 15.54 12.66 1.84 1.47 2.41 1.91 15.17 11.76 0.3 0.23 1.74 1.31 13.1 9.74 3.38 2.48 1 0.7 0.4 0.3 8.51 6c76.22,-79.27 164.65,-146.81 270.98,-183.21 107.72,-36.83 216.19,-59.17 322.04,-59.17 137.36,0 270.27,37.57 391.59,129.96 108.47,82.45 165.63,211.44 266.39,300.98 82.24,73.14 162.81,102.67 240.77,102.67 150.15,0 291.33,-109.16 417.95,-227.41 63.09,-58.83 133.28,-118 209.36,-165.96 -52.01,-70.42 -98.09,-145.56 -137.77,-224.12 -134.68,117.3 -288.72,226.37 -463.89,226.37 -39.48,0 -80.1,-5.56 -121.82,-17.85 -104.42,-30.71 -201.76,-78.09 -275.6,-161.14 -110.11,-123.57 -205.31,-329.95 -378.03,-373.78 -55.52,-14.16 -111.75,-21.03 -167.4,-21.03 -188.77,0 -371.54,79.26 -499.22,226.81 -79.97,92.62 -145.67,153.83 -262.51,190.9 -18.75,6.03 -38.07,10.05 -57.93,12.29zm1736.86 1148.5c-77.96,0 -158.53,-29.53 -240.77,-102.64 -100.76,-89.54 -157.92,-218.56 -266.39,-301.14 -50.9,-38.75 -103.94,-67.81 -158.39,-88.58 -9.64,-7.56 -19.42,-15 -29.37,-22.23l0 -0.03 -2.01 -1.44 -5.96 -4.32 -0.17 -0.1 -1.84 -1.34 -2.01 -1.44 -2.01 -1.41 -1.97 -1.44 -0.34 -0.2 -1.7 -1.21 -2.01 -1.4 -2.01 -1.41 -2.51 -1.71 -1.54 -1.07 -18.36 -12.36 -2.04 -1.34 -2.07 -1.37 -1.01 -0.63 -1.04 -0.71 -2.07 -1.34 -2.08 -1.3 -2.04 -1.34 -1.21 -0.77 -0.87 -0.54 -2.07 -1.34 -2.08 -1.3 -2.11 -1.31 -1.37 -0.87 -0.71 -0.44 -2.07 -1.3 -2.11 -1.27 -2.08 -1.31 -1.57 -0.94 -0.54 -0.33 -2.07 -1.28 -2.11 -1.27 -2.11 -1.27 -1.78 -1.07 -0.33 -0.2 -2.11 -1.28 -2.11 -1.23 -2.15 -1.24 -1.94 -1.14 -0.17 -0.14 -4.25 -2.47 -2.11 -1.21 -2.14 -1.24 -8.21 -4.65 -1.17 -0.67 -7.06 -3.92 -2.38 -1.31 -5.86 -3.21 -3.62 -1.94 -4.69 -2.52 -4.82 -2.54 -3.51 -1.84 -6.03 -3.15 -2.35 -1.17 -7.26 -3.72 -1.11 -0.53 -8.4 -4.22 -0.1 -0.07 -8.37 -4.09 -1.31 -0.63 -7.17 -3.45 -2.54 -1.24 -5.96 -2.81 -3.79 -1.81 -4.72 -2.18 -5.02 -2.34 -3.52 -1.61 -6.29 -2.88 -2.28 -1 -7.57 -3.42 -1.04 -0.44 -8.6 -3.81 -0.2 -0.1 -8.44 -3.69 -1.44 -0.63 -7.2 -3.08 -17.38 -7.37 -5.22 -2.21 -3.49 -1.44 -8.7 -3.58 -7.77 -3.22 -0.97 -0.37 -8.74 -3.55 -0.31 -0.13 -8.43 -3.38 -1.61 -0.67 -7.17 -2.85 -2.84 -1.14 -5.93 -2.34 -4.15 -1.64 -4.66 -1.84 -5.39 -2.11 -3.38 -1.34 -6.7 -2.62 -2.11 -0.8 -7.97 -3.11 -0.84 -0.3 -8.8 -3.42 -0.44 -0.2 -8.37 -3.22 -1.71 -0.67 -7.13 -2.74 -2.98 -1.14 -5.83 -2.24 -4.25 -1.64 -4.55 -1.75 -5.56 -2.14 -3.28 -1.27 -6.8 -2.61 -2.01 -0.77 -8.11 -3.12 -0.7 -0.3 -8.84 -3.42 -0.53 -0.2 -8.28 -3.21 -1.8 -0.7 -7 -2.72 -3.08 -1.2 -5.7 -2.25 -8.8 -3.44 -5.63 -2.21 -3.15 -1.24 -6.9 -2.75 -1.87 -0.74 -8.14 -3.24 -0.63 -0.27 -8.74 -3.52 -0.67 -0.27 -8.07 -3.31 -1.91 -0.77 -6.83 -2.78 -3.15 -1.31 -5.56 -2.31 -4.42 -1.84 -4.29 -1.81 -5.66 -2.38 -3.01 -1.27 -6.9 -2.94 -1.77 -0.78 -8.14 -3.51 -0.5 -0.24 -8.61 -3.78 -0.74 -0.3 -7.87 -3.52 -1.97 -0.87 -6.63 -2.98 -3.22 -1.47 -5.32 -2.45 -4.45 -2.04 -4.09 -1.91 -5.66 -2.64 -2.88 -1.34 -6.83 -3.28 -1.64 -0.77 -8.07 -3.92 -0.4 -0.2 -8.44 -4.16c120.62,-104.21 274.19,-159.49 431.68,-159.49 55.75,0 111.98,7 167.5,21.03 172.72,43.96 267.92,250.21 378.03,373.91 73.84,82.91 171.18,130.3 275.6,161 41.72,12.29 82.34,17.85 121.92,17.85 235.21,0 432.25,-196.7 595.53,-345.78 47.35,-43.23 94.6,-75.25 141.52,-96.98 68.14,68.62 143.52,129.83 225.86,181.57 163.02,102.53 347.19,164.68 537.97,193.01 15.13,7.47 30.61,13.6 46.55,18.46 68.17,20.66 131.03,30.33 189.63,30.33 69.45,0 133.01,-13.56 193.12,-38.61 22,-2.14 44.07,-4.48 65.93,-7.33 80.34,-10.38 159.7,-25.42 238.26,-44.3l-1.57 1.17 -16.11 12.02 -2.01 1.51 -12.92 10.04 -0.94 0.77 -15.64 12.6 -2.54 2.07 -5.19 4.32 -1.11 0.91 -6.26 5.29 -0.3 0.26 -5.93 5.06 -1.71 1.47 -4.49 3.92 -3.04 2.71 -7.5 6.67 -1.68 1.51 -5.76 5.25 -0.3 0.24 -6.03 5.56 -1.07 1 -4.89 4.59 -2.41 2.31 -3.55 3.35 -3.71 3.58 -7.17 7 -0.87 0.84 -5.79 5.76 -0.47 0.5 -5.29 5.32 -1.78 1.81 -3.95 4.02 -3.05 3.18 -2.64 2.75 -4.29 4.52 -1.34 1.4 -5.52 5.93 -0.11 0.07 -5.52 5.99 -1.17 1.31c-6.8,7.4 -13.43,14.93 -19.99,22.53l-0.61 0.67 -12.39 14.64 -3.45 4.15 -2.94 3.62 -6.33 7.8 -1.04 1.27 -5.09 6.43 -0.1 0.14 -4.96 6.29 -1.24 1.64 -3.75 4.86 -2.34 3.11 -2.61 3.42 -3.42 4.58 -1.47 1.98 -4.49 6.13 -0.37 0.47 -5.52 7.67 -4.05 5.62 -1.78 2.55 -2.91 4.15 -2.82 4.08 -1.84 2.65 -3.81 5.66 -0.77 1.14 -4.56 6.8 -0.27 0.4 -0.16 0.23 -10.79 16.61 -2.14 3.35 -3.21 5.12 -1.14 1.85 -4.12 6.69 -0.17 0.27 -4.25 7 -0.77 1.34 -5.13 8.64 -2.41 4.12 -2.64 4.55 -1.44 2.55 -3.52 6.19 -0.5 0.94 -3.99 7.17 -0.36 0.66 -3.55 6.5 -1.24 2.35 -2.65 4.88 -2.07 3.96 -1.71 3.28 -2.92 5.66 -0.87 1.64 -3.68 7.3 -0.57 1.17 -0.6 1.14 -0.57 1.17 -0.6 1.17 -0.07 0.2 -0.5 0.97 -1.18 2.35 -0.56 1.17 -0.17 0.37 -0.4 0.8 -0.61 1.17 -0.57 1.18 -0.57 1.17 -0.26 0.57 -0.91 1.81 -0.57 1.17 -0.57 1.17 -2.74 5.69 -0.14 0.24 -0.56 1.17 -0.57 1.21 -0.57 1.17 -0.54 1.14 -0.07 0.06 -2.27 4.76 -0.04 0.13 -1.1 2.25 -0.57 1.2 -1.14 2.38 -0.57 1.2 -0.57 1.18 -0.57 1.2 -0.23 0.54 -0.94 1.87 -0.57 1.17 -0.57 1.21 -0.33 0.74 -0.24 0.47 -0.57 1.2 -0.57 1.17 -0.57 1.21 -0.43 0.94 -0.13 0.26 -0.57 1.21 -0.57 1.21 -0.07 0.1 -1.04 2.21 -0.06 0.06 -0.57 1.21 -0.57 1.2 -0.57 1.21 -0.57 1.17 -0.07 0.17 -0.53 1.04 -0.57 1.2 -0.57 1.21 -0.57 1.2 -0.17 0.34 -0.44 0.84 -0.56 1.2 -0.57 1.21 -0.57 1.2 -0.27 0.54 -0.34 0.63 -0.57 1.21c-39.21,21.83 -77.38,31.28 -114.35,31.28 -163.85,0 -303.86,-185.35 -402.71,-296.26 -92.03,-103.14 -201.33,-157.12 -335.88,-182.07 -28.56,-5.29 -56.82,-7.9 -84.58,-7.9 -205.41,0 -387.35,136.56 -531.84,271.34 -126.62,118.28 -267.8,227.41 -417.95,227.41zm-1944.14 -2084.59l0.2 -0.93 4.65 -22.41 0.34 -1.6 4.75 -20.66c113.52,-474.41 502.17,-917.17 984.75,-988.07l-994.69 1033.67z"/>
  </g>
  <path class="fil46" d="M5043.25 22953.7c-60.47,-38.74 -158.29,-97.48 -264.37,-99.95 -112.49,-2.58 -205.45,32.01 -305.64,78.69 -101.23,47.12 -190.3,176.24 -251.48,261.77 -82.48,115.19 -113.52,255.63 -126.52,393.73 -28.73,304.8 165.03,619.74 430.48,759.95 303.02,160.1 680.45,106.59 959.59,-80.9 268.17,-180.03 492.73,-491.92 465.2,-830.94 -36.13,-443.84 -364.07,-733.16 -793.37,-783.59 -212.54,-24.95 -479.63,55.52 -653.76,176.47 -159,110.48 -284.57,242.31 -339.05,434.03 -62.82,221.04 -7.81,475.74 157.59,637.58 252.82,247.24 668.53,190.54 851.16,-109.63 28.7,-45.48 50.33,-94.64 64.87,-147.31 -20.7,69.58 -56.6,130.06 -107.86,181.46 38.87,-45.14 140.34,-109.87 -16.78,-1.77 65.8,-45.38 20.79,-27.53 -13.6,-9.81 -25.98,13.33 -45.94,26.69 -7.67,12.99 16.88,-5.56 33.89,-10.51 51.27,-14.53 61.08,-15.94 -4.48,-8.51 -47.72,-1.07 -30.13,5.19 -49.39,10.51 -6.86,7.66 134.68,-8.6 -124.17,-30.23 -47.62,-7.3 -167.97,-50.46 -247,-177.68 -259.99,-348.63 20.33,-110.34 23.27,-135.25 8.51,-74.77 43.93,-94.13 51.5,-114.13 22.8,-59.88 -33.22,49.5 -21.03,35.2 36.37,-42.99 -20.33,25.38 -43.7,47.48 -67.58,69.45 76.55,-56.23 88.51,-66.88 35.46,-31.78 -54.82,28.7 -39.71,23.98 45.24,-14.43 -19.96,7.23 -40.42,12.89 -61.08,17.27 153.34,-37.47 88.14,-12.89 32.72,-11.48 -58.6,-1.17 -37.2,2.85 64.16,12.29 -52.71,-15.71 -35.56,-7.57 51.37,24.58 -44.4,-28.37 -31.78,-18.55 37.81,29.53 85.19,78.93 33.32,46.42 7.8,-1.77 -25.38,-49.39 -22.1,-39.58 9.91,29.67 -10.51,-44.07 -9.31,-27.29 3.45,50.29 -1.54,-17.24 -2.24,-34.59 -2.01,-51.97 -0.7,-46.17 -5.69,-23.27 -8.27,-0.33 -2.61,23.27 -2.85,46.41 6.13,-1.68 6.49,-34.59 16.54,-68.98 23.97,-103.6 10.89,-34.26 8.51,-29.87 -6.83,12.89 -9.71,18.89 -35.93,44.3 -57.19,50.43 -41.33,0 -82.58,0 -123.9,0l28.09 4.72c249.28,42.66 401.68,-270.5 175.2,-415.34z"/>
  <path class="fil1" d="M5394.23 23432.13c66.5,-205.07 189.13,-613.58 -67.11,-745.18 -103.94,-53.28 -236.85,33.89 -201.89,155.34 27.76,96.65 98.52,167.64 124.54,268.64 25.61,99.58 36.13,206.51 49.36,308.34 6.73,52.44 77.25,68.05 95.1,12.86z"/>
  <path class="fil47" d="M4686.15 24571.42c-58.6,0 -121.46,-9.68 -189.63,-30.37 -103.81,-31.42 -190.18,-122.6 -256.81,-202.7 -115.43,-138.8 -250.69,-226.94 -394.35,-226.94 -97.58,0 -198.91,40.62 -300.74,133.61 -41.72,38.04 -85.56,79.27 -131.74,119.42 -32.24,-63.66 -60.47,-129.46 -84.35,-196.67 4.25,-3.92 8.51,-7.94 12.76,-11.82 144.49,-134.79 326.43,-271.35 531.84,-271.35 27.76,0 56.02,2.48 84.58,7.77 78.23,14.67 147.91,38.88 210.53,77.02 76.66,160.34 205.31,298.2 357.48,378.5 122.86,64.87 257.88,94.77 393.6,94.77 40.05,0 80.23,-2.61 120.15,-7.7 -106.92,85.79 -219.24,136.46 -353.32,136.46z"/>
  <path class="fil48" d="M2948.99 24590.81c-39.48,0 -80.1,-5.56 -121.82,-17.85 -104.42,-30.71 -201.76,-78.09 -275.6,-161.14 -110.11,-123.57 -205.31,-329.95 -378.03,-373.78 -55.52,-14.16 -111.75,-21.03 -167.4,-21.03 -188.77,0 -371.54,79.26 -499.22,226.81 -79.97,92.62 -145.67,153.83 -262.51,190.9 -18.75,6.03 -38.07,10.05 -57.93,12.29 -9.51,-13.12 -18.75,-26.42 -27.73,-39.95l-0.53 -0.83c-12.43,-18.82 -24.31,-38.04 -35.67,-57.6l-0.16 -0.3 -11.12 -19.66 -0.07 -0.13 -10.81 -19.99 -0.07 -0.07 -9.21 -17.88c105.38,-0.57 206.48,-47.12 303.93,-158.63 84.22,-96.27 183.81,-180.76 307.51,-223.05 107.72,-36.84 216.19,-59.31 322.04,-59.31 137.36,0 270.27,37.71 391.59,129.96 108.47,82.58 165.63,211.57 266.39,301.12 82.24,73.13 162.81,102.67 240.77,102.67 145.2,0 281.76,-102.07 405.19,-215.59 23.88,67.21 52.11,133.01 84.35,196.67 -134.68,117.3 -288.72,226.37 -463.89,226.37z"/>
  <path class="fil47" d="M6294.76 24336.21c-10.75,-7.2 -21.37,-14.17 -32.02,-20.8 -183.34,-114.36 -382.62,-205.07 -578.48,-216.06 62.82,-66.03 118.47,-139.87 162.54,-219.13 158.9,29.4 304.57,104.44 453.98,198.1 26.46,16.55 54.55,36.37 83.85,57.64l-1.1 3.28 -0.77 2.17 -0.37 1.08 -7 19.42 -0.37 1 -0.83 2.25 -4.89 12.86 -1.24 3.21 -1.17 3.01 -0.07 0.17 -1.27 3.22 -1.28 3.18 -5.15 12.76 -0.77 1.87 -0.54 1.31 -1.34 3.14 -4.02 9.51 -1.34 3.15 -1.37 3.15 -0.3 0.74 -1.07 2.41 -4.19 9.41 -1.4 3.15 -1.41 3.11 -1.24 2.75 -0.2 0.36 -1.44 3.15 -1.44 3.12 -1.44 3.08 -1.47 3.11 -1.48 3.12 -1.47 3.08 -0.74 1.6 -0.73 1.48 -1.51 3.11 -1.51 3.08 -3.05 6.13 -1.5 3.08 -1.54 3.05 -0.24 0.5 -1.34 2.58 -1.54 3.05 -1.57 3.04 -1.57 3.05 -1.58 3.05 -1.61 3.01 -3.21 6.06 -1.61 3.05 -1.64 3.01 -1.64 3.02 -1.64 2.98 -1.64 3.01 -3.35 6 -1.67 2.98z"/>
  <path class="fil49" d="M4919.32 24442.66c-135.72,0 -270.74,-29.9 -393.6,-94.77 -152.17,-80.3 -280.82,-218.16 -357.48,-378.5 45.24,27.43 86.84,61.92 125.35,105.15 98.85,110.94 238.86,296.16 402.71,296.16 45.84,0 93.66,-14.54 142.95,-49.26 256.81,-181.2 370.7,-374.95 702.19,-439.11 55.28,-10.75 108.19,-15.71 159.59,-15.71 50.07,0 98.52,4.72 145.77,13.6 -44.07,79.26 -99.72,153.1 -162.54,219.13 -13.36,-0.83 -26.72,-1.17 -39.95,-1.17 -166.9,0 -330.18,60.85 -477.86,217.47 -42.16,44.77 -84.08,84.82 -126.98,119.31 -39.92,5.09 -80.1,7.7 -120.15,7.7z"/>
  <path class="fil47" d="M4703.87 25139.66c-85.06,0 -170.12,-5.93 -253.9,-18.46 -83.28,-40.62 -153.91,-116.36 -210.26,-184.27 -115.43,-138.81 -250.69,-226.94 -394.35,-226.94 -52.2,0 -105.48,11.58 -159.22,36.63 -48.93,-49.16 -94.04,-102.07 -135.49,-158.06 98.38,-62.05 206.71,-105.38 322.48,-105.38 27.76,0 56.02,2.58 84.58,7.9 134.55,25.05 243.85,78.93 335.88,182.04 98.85,110.94 238.72,296.29 402.71,296.29 45.84,0 93.66,-14.64 142.95,-49.39 256.81,-181.2 370.7,-374.96 702.19,-439.08 55.28,-10.75 108.19,-15.71 159.59,-15.71 149.32,0 284.11,42.16 416.41,107.59l-2.84 2.88 -2.88 2.88 -5.76 5.73 -2.92 2.85 -2.91 2.84 -2.91 2.82 -2.95 2.81 -2.95 2.81 -2.98 2.78 -11.92 11.05 -15.2 13.56 -1.68 1.48 -1.4 1.2 -3.08 2.65 -9.31 7.9 -3.12 2.61 -0.33 0.3 -2.81 2.32 -12.63 10.28 -2.11 1.7 -1.1 0.84 -0.84 0.67 -15.27 11.85 -0.7 0.54 -2.55 1.91 -13.13 9.74 -2.54 1.88 -0.77 0.53 -3.32 2.38 -10.01 7.07 -3.35 2.34 -1.1 0.77 -2.28 1.54 -16.61 11.15 -0.4 0.27 -17.25 11.05 -1.54 0.97 -1.94 1.21 -17.58 10.65 -0.33 0.2 -0.34 0.2 -0.37 0.2 -0.33 0.2 -0.34 0.2 -0.33 0.2 -0.34 0.17 -0.33 0.2 -0.34 0.2 -0.33 0.2 -0.34 0.2 -0.36 0.21 -0.34 0.2 -0.33 0.2 -0.34 0.2 -0.33 0.2 -0.34 0.2 -0.33 0.2 -0.34 0.2 -0.33 0.2 -0.34 0.2 -0.33 0.2 -1.31 0.77 -0.33 0.21 -1.78 0.97c-85.59,-27.26 -171.92,-43.2 -257.31,-43.2 -166.9,0 -330.18,60.84 -477.86,217.5 -92.72,98.51 -184.74,174.46 -287.18,217.12 -58.23,5.43 -116.84,8.28 -175.4,8.28z"/>
  <path class="fil48" d="M2949.09 25189.38c-39.58,0 -80.2,-5.56 -121.92,-17.85 -104.42,-30.7 -201.76,-78.09 -275.6,-161 -110.11,-123.7 -205.31,-329.95 -378.03,-373.91 -55.52,-14.03 -111.75,-21.03 -167.5,-21.03 -157.49,0 -311.06,55.28 -431.68,159.49l-0.81 -0.4 -0.4 -0.2 -1.24 -0.6 -1.2 -0.6 -2.45 -1.24 -1.2 -0.61 -2.41 -1.23 -0.71 -0.37c-12.69,-6.43 -25.31,-13.06 -37.77,-19.96l-0.3 -0.2 -11.55 -6.47 -1.18 -0.66 -2.37 -1.34 -1.18 -0.67 -1.2 -0.71 -1.17 -0.67 -0.1 -0.06 -1.08 -0.64 -1.17 -0.67 -1.17 -0.7 -1.2 -0.67 -1.18 -0.71 -1.17 -0.67 -1.17 -0.7 -1.17 -0.7 -18.99 -11.52 -0.54 -0.34 -0.5 -0.3 -1.07 -0.67 -14.53 -9.31 -1.04 -0.67 -1.04 -0.67 -1 -0.67 -0.04 0 -1.04 -0.7 -1 -0.67 -13.33 -8.94 -1 -0.7 -1.04 -0.71 -1 -0.7 -0.44 -0.27 -0.57 -0.43 -1.04 -0.67 -1 -0.71 -1.01 -0.7 -1 -0.74 -4.02 -2.84c76.22,-79.27 164.65,-146.81 270.98,-183.21 107.72,-36.83 216.19,-59.17 322.04,-59.17 137.36,0 270.27,37.57 391.59,129.96 108.47,82.45 165.63,211.44 266.39,300.98 82.24,73.14 162.81,102.67 240.77,102.67 150.15,0 291.33,-109.16 417.95,-227.41 63.09,-58.83 133.28,-118 209.36,-165.96 41.45,55.99 86.56,108.9 135.49,158.06 -46.92,21.73 -94.17,53.75 -141.52,96.98 -163.28,149.08 -360.32,345.78 -595.53,345.78zm1737.06 -19.39c-58.6,0 -121.46,-9.67 -189.63,-30.33 -15.94,-4.86 -31.42,-10.99 -46.55,-18.46 83.78,12.53 168.84,18.46 253.9,18.46 58.56,0 117.17,-2.85 175.4,-8.28 -60.11,25.05 -123.67,38.61 -193.12,38.61z"/>
  <path class="fil48" d="M3063.45 25787.72l-2.45 -0.03 -4.89 -0.1 -2.44 -0.03 -9.61 -0.2 -2.38 -0.04 -2.38 -0.06 -2.24 -0.04 -0.1 0 -2.34 -0.06 -2.35 -0.04 -2.31 -0.06 -2.34 -0.07 -0.84 0 -1.44 -0.04 -2.31 -0.06 -2.28 -0.04 -2.27 -0.06 -1.78 -0.04 -0.47 -0.03 -2.24 -0.03 -2.25 -0.07 -2.21 -0.07 -2.21 -0.03 -0.5 0 -1.71 -0.07 -2.17 -0.06 -2.21 -0.07 -3.52 -0.07 -0.77 -0.03 -2.14 -0.07 -2.15 -0.07 -2.1 -0.06 -2.11 -0.07 -0.14 0 -1.97 -0.07 -2.08 -0.06 -2.04 -0.07 -2.08 -0.07 -0.97 -0.03 -1.07 -0.03 -2.04 -0.07 -2.01 -0.07 -2.01 -0.07 -1.78 -0.06 -0.2 0 -1.97 -0.07 -1.98 -0.07 -1.94 -0.06 -1.94 -0.1 -0.64 0 -1.31 -0.07 -1.91 -0.07 -1.9 -0.07 -1.88 -0.1 -1.41 -0.03 -0.46 -0.03 -1.85 -0.07 -1.84 -0.1 -1.84 -0.07 -1.81 -0.06 -0.3 -0.04 -1.51 -0.06 -1.8 -0.07 -1.78 -0.1 -1.74 -0.07 -1.04 -0.07 -0.74 -0.03 -1.7 -0.07 -1.75 -0.1 -1.7 -0.06 -1.68 -0.1c-57.29,-3.08 -116.23,-7.24 -167.53,-32.99 -103.24,-51.5 -146.94,-171.89 -198.68,-274.99l-3.41 -6.77 -1.14 -2.17 -2.35 -4.56 -2.27 -4.38 -1.28 -2.35 -3.45 -6.49 -0.1 -0.21 -3.61 -6.66 -1.07 -1.98 -2.62 -4.65 -2.27 -4.12 -1.44 -2.51 -7.24 -12.62 -0.3 -0.51 -1.04 -1.77 -2.81 -4.76 -2.31 -3.88 -1.61 -2.65 -3.58 -5.96 -0.33 -0.5 -3.99 -6.46 -0.97 -1.58 -3.05 -4.85 -2.31 -3.62 -1.77 -2.78 -3.65 -5.66 -0.47 -0.7 -4.15 -6.33 -0.91 -1.37 -3.31 -4.96 -4.26 -6.26 -3.68 -5.43 -0.6 -0.83 -4.32 -6.23 -0.81 -1.17 -3.58 -5.03 -2.24 -3.14 -2.18 -3.02 -3.72 -5.12 -0.73 -1.01 -4.49 -6.09 -0.74 -1.01 -3.82 -5.09 -2.21 -2.91 -2.37 -3.11 -3.72 -4.86 -0.9 -1.17 -4.69 -5.96 -0.6 -0.8 -4.09 -5.16 -2.14 -2.68 -2.62 -3.22 -3.71 -4.58 -1.07 -1.31 -4.83 -5.83 -0.5 -0.63 -4.39 -5.19 -2.07 -2.48 -2.81 -3.32 -3.72 -4.32 -1.24 -1.4 -4.99 -5.73 -0.37 -0.43 -4.65 -5.26 -2.01 -2.24 -3.05 -3.39 -3.72 -4.08 -1.4 -1.54 -5.13 -5.56 -0.26 -0.27 -4.93 -5.29 -1.94 -2.04 -3.25 -3.45 -3.68 -3.82 -6.87 -7.1 -0.13 -0.1 -14.16 -14.2 -0.04 -0.03 -1.77 -1.74 -5.39 -5.26 -0.04 -0.03 -7.23 -6.9 -3.75 -3.58 -3.55 -3.32 -1.98 -1.84 -12.86 -11.72 -3.98 -3.58 -3.52 -3.09 -2.17 -1.94 -5.39 -4.69 -0.31 -0.3 -7.3 -6.23 -4.25 -3.61 -3.41 -2.85c-8.54,-7.17 -17.22,-14.2 -25.99,-21.1 54.45,20.77 107.49,49.83 158.39,88.58 108.47,82.58 165.63,211.6 266.39,301.14 82.24,73.11 162.81,102.64 240.77,102.64 150.15,0 291.33,-109.13 417.95,-227.41 144.49,-134.78 326.43,-271.34 531.84,-271.34 27.76,0 56.02,2.61 84.58,7.9 134.55,24.95 243.85,78.93 335.88,182.07 98.85,110.91 238.86,296.26 402.71,296.26 36.97,0 75.14,-9.45 114.35,-31.28l-1.54 3.15 -0.3 0.63 -1.87 3.79 -0.27 0.57 -1.57 3.21 -0.87 1.74 -1.01 2.05 -1.47 2.91 -2.31 4.62 -0.2 0.34 -1.71 3.41 -0.81 1.54 -1.1 2.21 -1.41 2.71 -0.53 1.04 -1.95 3.72 -0.1 0.13 -2.57 4.89 -1.24 2.38 -1.34 2.48 -0.64 1.2 -2.01 3.62 0 0.07 -2.01 3.65 -0.63 1.1 -1.41 2.55 -4.02 7 -0.1 0.23 -2.11 3.62 -0.53 0.87 -1.58 2.68 -1.2 2.01 -0.91 1.54 -1.94 3.11 -0.23 0.44 -2.15 3.48 -0.47 0.7 -1.74 2.78 -6.73 10.31 -0.37 0.51 -1.94 2.88 -1.07 1.54 -3.08 4.42 -0.5 0.73 -2.38 3.32 -0.24 0.27 -2.17 2.98 -1.01 1.34 -3.21 4.22 -0.67 0.9c-4.09,5.29 -8.37,10.48 -12.76,15.5l0 0.04c-4.42,5.02 -8.91,9.91 -13.6,14.63l-0.73 0.71 -3.72 3.65 -1.24 1.2 -2.58 2.41 -0.3 0.3 -2.95 2.68 -0.63 0.54 -3.92 3.45 -1.44 1.24 -2.58 2.11 -0.5 0.43 -7.74 6.06 -1.67 1.27 -2.54 1.85 -0.71 0.5 -3.28 2.31 -0.33 0.2 -4.39 2.95 -1.94 1.27 -2.52 1.57 -0.9 0.57 -6.96 4.12 -1.31 0.74 -2.24 1.24 -2.48 1.3 -1.14 0.61 -3.65 1.87 -1.04 0.5 -1.04 0.54 -0.33 0.17 -0.71 0.33 -1 0.5 -0.7 0.31 -0.37 0.2 -1.04 0.47 -1.04 0.46 0 0.04 -1.04 0.47 -1.03 0.47 -0.37 0.13 -1.74 0.77 -0.71 0.3 -0.33 0.17 -1.07 0.43 -1.04 0.44 0 0.03 -1.07 0.44 -1.07 0.43 -0.34 0.1 -0.7 0.3 -1.78 0.67 -0.37 0.17 -2.14 0.81 0 0.03 -1.07 0.4 -1.07 0.4 -0.34 0.1 -0.73 0.27 -3.22 1.14 -1.07 0.37 -0.03 0 -1.07 0.37 -1.08 0.36 -0.36 0.11 -1.81 0.6 -0.74 0.2 -0.37 0.13 -2.17 0.67 0 0.04 -2.18 0.63 -0.37 0.1 -0.74 0.24 -1.1 0.33 -0.7 0.2 -0.37 0.1 -1.11 0.3 -1.1 0.31 0 0.03 -1.11 0.3 -1.1 0.27 -0.37 0.1 -0.74 0.2 -1.1 0.3 -0.74 0.2 -0.37 0.07 -1.1 0.3 -1.11 0.27 -0.03 0 -1.11 0.27 -1.1 0.26 -0.37 0.11 -0.74 0.16 -1.14 0.27 -0.7 0.2 -0.4 0.07 -2.21 0.5 -0.03 0 -1.14 0.24 -1.11 0.26 -0.33 0.07 -0.81 0.17 -1.1 0.23 -0.74 0.17 -0.4 0.07 -1.14 0.23 -2.24 0.44c-26.69,-4.83 -54.22,-11.59 -82.71,-20.2 -103.81,-31.41 -190.18,-122.49 -256.81,-202.73 -115.43,-138.8 -250.69,-226.94 -394.35,-226.94 -97.58,0 -198.91,40.66 -300.74,133.52 -136.09,124.4 -295.59,281.75 -481.17,330.64z"/>
 </g>
</svg>
