<?xml version="1.0" encoding="UTF-8"?>
<!DOCTYPE svg PUBLIC "-//W3C//DTD SVG 1.1//EN" "http://www.w3.org/Graphics/SVG/1.1/DTD/svg11.dtd">
<!-- Creator: CorelDRAW -->
<svg xmlns="http://www.w3.org/2000/svg" xml:space="preserve" width="187.96mm" height="265.811mm" version="1.1" style="shape-rendering:geometricPrecision; text-rendering:geometricPrecision; image-rendering:optimizeQuality; fill-rule:evenodd; clip-rule:evenodd"
viewBox="0 0 18796 26581.1"
 xmlns:xlink="http://www.w3.org/1999/xlink"
 xmlns:xodm="http://www.corel.com/coreldraw/odm/2003">
 <defs>
  <style type="text/css">
   <![CDATA[
    .fil2 {fill:#387C58;fill-rule:nonzero}
    .fil4 {fill:#3E8A62;fill-rule:nonzero}
    .fil5 {fill:#41916A;fill-rule:nonzero}
    .fil10 {fill:#44996A;fill-rule:nonzero}
    .fil6 {fill:#458F69;fill-rule:nonzero}
    .fil3 {fill:#479E70;fill-rule:nonzero}
    .fil8 {fill:#4DA179;fill-rule:nonzero}
    .fil9 {fill:#51B77F;fill-rule:nonzero}
    .fil7 {fill:#53AC7F;fill-rule:nonzero}
    .fil12 {fill:#7D2602;fill-rule:nonzero}
    .fil11 {fill:#913203;fill-rule:nonzero}
    .fil14 {fill:#AD3F0E;fill-rule:nonzero}
    .fil13 {fill:#DDA814;fill-rule:nonzero}
    .fil0 {fill:#FFC06E;fill-rule:nonzero}
    .fil1 {fill:white;fill-rule:nonzero}
   ]]>
  </style>
 </defs>
 <g id="Capa_x0020_1">
  <metadata id="CorelCorpID_0Corel-Layer"/>
  <polygon class="fil0" points="0.07,26583.23 18795.3,26583.23 18795.3,2.1 0.07,2.1 "/>
  <path class="fil1" d="M12010.93 11682.74c-2506.18,547.66 -5069.37,771.58 -7612.84,1073.28 -118.95,14.16 -120.3,202.28 0,188.11 2559.94,-303.63 5140.36,-528.71 7662.81,-1079.99 118.42,-25.92 68.19,-207.19 -49.97,-181.4z"/>
  <path class="fil1" d="M4316.89 12897.52c701.49,1318.25 1822.26,2362.67 2559.84,3662.63 59.75,105.54 222.28,10.84 162.36,-94.8 -737.52,-1300.23 -1858.39,-2344.65 -2559.81,-3662.76 -56.95,-107.12 -219.37,-12.09 -162.39,94.93z"/>
  <path class="fil1" d="M7024.43 16579.22c713.24,-869.9 1588.05,-1622.9 2429.43,-2364.74 891.25,-786 1787.57,-1554.35 2648.55,-2374.52 87.94,-83.76 -45.26,-216.61 -133.01,-133.04 -836.67,797.04 -1703.44,1548.06 -2572.95,2308.15 -868.82,759.52 -1771.27,1536.2 -2505.03,2431.21 -76.19,92.85 56.06,226.82 133.01,132.94z"/>
  <path class="fil1" d="M11969.4 11839.96c1412.51,1754.34 3103.86,3347.49 4273.32,5284.48 62.52,103.66 225.21,9.19 162.46,-94.94 -1178.05,-1951.17 -2880.21,-3555.7 -4302.77,-5322.58 -76.13,-94.47 -208.31,39.5 -133.01,133.04z"/>
  <path class="fil1" d="M7010.04 16541.57c1533.7,39.26 3067.83,42.99 4601.07,102.74 1556.17,60.54 3176.54,113.74 4687.87,523.38 117.13,31.72 166.87,-149.68 49.97,-181.4 -1458.6,-395.34 -3016.87,-455.06 -4518.43,-521.07 -1606.1,-70.53 -3213.65,-70.66 -4820.48,-111.67 -121.32,-3.26 -121.02,184.99 0,188.02z"/>
  <path class="fil1" d="M6919.39 16472.56c358.78,880.45 903.5,1688.19 1395.95,2497.32 659.41,1083.48 1329.11,2174.97 1822.58,3346.54 46.35,110.18 228.44,61.72 181.4,-49.84 -455,-1080.36 -1054.76,-2091.44 -1660.09,-3092.77 -540.12,-893.13 -1162.97,-1780.59 -1558.51,-2751.35 -45.13,-110.74 -227.12,-62.39 -181.33,50.1z"/>
  <path class="fil1" d="M16242.72 17029.5c-719.53,1578.77 -1746.89,2998.4 -2343.13,4635.14 -41.6,114.23 140.16,162.92 181.4,50.1 590.44,-1620.93 1611.51,-3026.66 2324.19,-4590.3 49.87,-109.56 -112.26,-205.22 -162.46,-94.94z"/>
  <path class="fil1" d="M10253.6 22382.2c1251.05,-221.59 2524.3,-303.18 3761.61,-601.94 117.86,-28.36 67.89,-209.86 -49.97,-181.4 -1237.21,298.76 -2510.59,380.45 -3761.64,601.94 -119.24,21.14 -68.58,202.31 50,181.4z"/>
  <path class="fil1" d="M4307.41 12825.16c-277.72,1878.64 -783.57,3735.12 -943.82,5629.58 -10.18,120.85 178,119.93 188.15,0 158.7,-1877.13 661.82,-3717.93 937.03,-5579.75 17.53,-118.51 -163.71,-169.67 -181.36,-49.83z"/>
  <path class="fil1" d="M3524.2 18521.21c363.92,-355.81 812.23,-616.1 1251.61,-866.74 715.94,-408.49 1456.36,-774.74 2190.02,-1149.73 108.01,-55.2 12.85,-217.53 -94.96,-162.45 -734.03,375.21 -1471.52,745.19 -2189.99,1149.82 -453.88,255.64 -915.07,529.77 -1289.76,896.15 -86.79,84.86 46.28,217.77 133.08,132.95z"/>
  <path class="fil1" d="M3523.11 18573.52c2092.99,1505.64 4307.12,2744.26 6658.06,3799.16 109.65,49.27 205.34,-112.86 94.93,-162.46 -2350.97,-1054.89 -4565.1,-2293.39 -6658.09,-3799.06 -98.65,-70.99 -192.46,92.26 -94.9,162.36z"/>
  <path class="fil2" d="M12110.19 13410.14c-321.65,-111.9 -1464.53,1446.18 -2082.15,2270.53 -650.46,868.25 -1290.44,1786.61 -1527.11,2845.46 -155.77,697.13 -307.23,1466.04 -76.32,2141.86 122.96,360 354.53,671.25 527.82,1009.8 150.96,295.04 257.92,612.68 316.22,938.94 198.63,0.46 397.32,0.83 595.95,1.19 61.33,0.1 128.46,-1.88 174.87,-41.97 40.55,-34.75 55.31,-90.32 68.06,-142.23 239.63,-971.72 789.76,-1669.15 1149.99,-2602.82 326.76,-847.28 455.25,-1942.03 628.98,-2833.31 81.82,-419.48 117.26,-846.41 152.71,-1272.32 64.13,-772.5 253.2,-2251.66 70.98,-2315.13z"/>
  <path class="fil3" d="M12834.5 16307.21c-423.21,827.28 -539.65,1421.08 -788.44,2316.42 -190.46,684.68 -486.06,1635.45 -852.65,2244.37 -194.87,323.6 -459.7,598.32 -723.15,869.21 -68.12,69.97 -145.07,144.31 -242.34,152.81 -154.88,13.57 -274.55,-155.05 -273.96,-310.49 0.59,-155.51 82.22,-297.15 152.61,-435.69 562.74,-1107.5 484.84,-2513.69 -196.81,-3552.08 -155.18,-236.38 -338.1,-453.55 -495.91,-688.04 -205.81,-305.75 -367.28,-638.67 -528.09,-970.31 -327.02,-674.47 -807.08,-1942.48 -980.97,-2023.35 -177.09,-82.51 -72.44,844.9 -47.83,1460.81 22.23,556.02 -167.86,1232.67 -271.82,1779.17 -128.63,676.22 -257.92,1361.69 -209.4,2048.35 43.19,612.02 226.27,1204.57 408.16,1790.66 -1190.27,-236.67 -2188.02,-1246.73 -2410,-2439.9 -67.89,-364.64 -104.28,-1034.44 -178.23,-1132.99 -71.28,-94.93 -182.49,124.67 -243.59,226.59 -507.83,847.24 -748.03,2012.64 -532.67,2976.69 67.23,301.07 197.08,1379.91 1253.59,1806.84 1295.45,523.64 2782.08,506.05 4167.58,324.55 454.14,-59.39 876.49,-150.04 1330.67,-209.4 329.23,-43.08 609.41,-158.37 911.63,-295.6 400.45,-181.99 751.03,-471.56 1047.95,-796.11 234.82,-256.84 445.87,-533.59 620.64,-834.6 512.35,-882.68 594.83,-1976.74 684.79,-2656.87 39.39,-298.64 -73.92,-1478.57 -321.89,-2185.68 -69.37,-198.23 -244.61,-767.07 -318.39,-775.66 -172.9,-20.23 -750.8,898.85 -961.48,1310.3z"/>
  <path class="fil2" d="M10346.7 21851.78c521.5,147.66 936.54,-434.61 1181.35,-801.72 427.03,-640.61 671.41,-1379.68 905.67,-2106.16 263.19,-816.58 629.58,-1587.59 911.15,-2396.26 131.26,-376.96 321.42,-872.93 628.45,-1188.5 -66.87,-186.67 -137.16,-357.56 -177.34,-362.23 -172.9,-20.23 -750.8,898.85 -961.48,1310.3 -423.21,827.28 -539.65,1421.08 -788.44,2316.42 -190.46,684.68 -486.06,1635.45 -852.65,2244.37 -194.87,323.6 -459.7,598.32 -723.15,869.21 -39.56,40.65 -82.12,82.75 -129.88,112.59l6.32 1.98z"/>
  <path class="fil4" d="M9045.72 21717.55c-57.88,-26.06 -105.94,-48.92 -138.97,-67.76 -365.96,-209.03 -583.86,-601.35 -758.57,-985.06 -259.6,-569.92 -464.32,-1163.16 -668.61,-1755.12 -35.74,-103.63 -71.51,-207.39 -105.28,-311.71l-0.03 -0.07 0.63 -10.47 0.75 -12.29 1.26 -19.83 0.19 -2.9 1.55 -22.72 0.46 -6.49 1.19 -16.27 1.19 -15.85 0.56 -6.88 1.81 -22.73 0.19 -2.47 1.68 -20.26 1.03 -11.86 0.95 -10.87 1.94 -21.21 0.14 -1.52 2.14 -22.72 0.75 -7.84 1.45 -14.86 1.75 -17.23 0.56 -5.5 2.37 -22.69 0.43 -3.86c2.31,-21.38 4.64,-42.79 7.11,-64.13l0 -0.13 7.68 -63.94 0.49 -4.15 3.53 -27.9 2.24 -17.49 1.91 -14.53 4.12 -30.8 0.16 -1.21 2.93 -21.48 1.48 -10.54 1.68 -12.12 2.84 -19.87 9.35 -64 0.99 -6.75 3.43 -22.66 0.39 -2.54 9.95 -63.93 0.2 -1.42 3.62 -22.63 1.28 -7.91 2.38 -14.72 2.83 -17.19 8.37 -50.63 2.24 -13.21 1.58 -9.42 7.7 -45.16 1.62 -9.23 2.3 -13.37 3.27 -18.51 0.69 -4.09 3.98 -22.56 0.93 -5.24 3.06 -17.32 2.6 -14.53 1.42 -8.04 4.08 -22.56 0.23 -1.25 3.86 -21.31 1.91 -10.54 2.17 -11.99 8.27 -45.1 1.22 -6.55 2.96 -15.98 2.93 -15.84 1.26 -6.66 4.18 -22.53 0.49 -2.6 3.73 -19.9 2.24 -11.89 1.97 -10.64 3.99 -21.11 0.26 -1.38 4.22 -22.47 1.51 -7.94 2.74 -14.56 3.26 -17.16 1.02 -5.3 4.25 -22.5 0.76 -3.95 3.52 -18.51 2.5 -13.18 1.75 -9.26 4.28 -22.46 4.68 -24.31 0.26 -1.42 4.48 -23.05 0.56 -2.84 4.32 -21.77 0.85 -4.28 4.12 -20.52 1.15 -5.74 3.89 -19.2 1.48 -7.21 3.66 -17.86 1.81 -8.73 3.43 -16.5 2.14 -10.24 3.13 -15.09 2.47 -11.79 2.9 -13.7 2.8 -13.34 2.6 -12.29 3.16 -14.86 2.31 -10.87 3.52 -16.43 2.01 -9.42 3.85 -18.02 1.72 -7.97 4.21 -19.57 1.39 -6.49 4.58 -21.18 1.05 -5.01 4.91 -22.79 0.75 -3.49 5.28 -24.38 0.39 -1.97 5.63 -26.03 0.07 -0.42 5.7 -26.55 0.26 -1.09 5.44 -25.53 0.59 -2.63 5.14 -24.05 0.89 -4.18 4.77 -22.6 1.25 -5.73 4.45 -21.08 5.67 -26.88 1.87 -8.9 3.76 -18.05 5.6 -26.97 2.5 -12.03 3.07 -15.02 5.53 -27.04 3.1 -15.22 2.37 -11.89 3.39 -16.8 2.04 -10.34c5.01,-25.27 9.98,-50.56 14.83,-75.9l1.05 -5.63c51.85,-271.95 92.03,-545.45 94.6,-798.72l0 -0.03 0.13 -25.27 0 -1.45 0 -1.44 0 -1.45 0 -1.49 0 -1.45 0 -1.44 0 -1.45 0 -1.45 0 -1.45 0 -0.23 -0.03 -1.22 0 -1.45 0 -1.45 0 -1.45 -0.03 -1.45 0 -1.45 0 -1.45 -0.03 -1.45 0 -1.45 -0.07 -5.79 -0.03 -1.45 0 -1.45 -0.04 -1.42 0 -1.45 -0.03 -1.45 0 -0.66 -0.03 -0.79 -0.03 -1.45 0 -1.45 -0.04 -1.41 -0.03 -1.45 -0.03 -1.45 -0.04 -1.45 -0.23 -10.08 -0.03 -1.42 -0.03 -1.45 -0.04 -1.45 -0.03 -1.41 -0.03 -1.06 0 -0.39 -0.07 -1.42 -0.03 -1.45 -0.03 -1.45 -0.6 -17.16 -0.06 -1.41 -0.04 -1.45 -0.06 -1.42 -0.66 -16.34 -0.56 -12.75 -0.16 -3.72 -0.73 -16.6 -0.43 -9.19 -0.36 -7.54 -0.79 -16.87 -0.26 -5.53 -0.56 -11.43 -0.86 -17.1 -0.1 -1.74 -0.79 -15.45 -0.79 -15.15 -0.13 -2.14 -0.96 -17.4 -0.59 -11.39 -0.36 -6.07 -0.96 -17.58 -0.43 -7.55 -0.59 -10.08 -1.02 -17.72 -0.2 -3.66 -0.82 -14.13 -1.02 -17.52 -0.04 -0.33 -1.05 -17.92 -0.79 -13.57 -0.3 -4.41 -1.08 -17.99 -0.56 -9.62 -0.53 -8.46 -1.09 -18.09 -0.33 -5.56 -0.79 -12.55 -1.12 -18.15 -0.06 -1.49 -1.02 -16.7 -0.96 -15.58 -0.16 -2.6 -1.12 -18.18 -0.7 -11.53 -0.42 -6.65 -1.12 -18.22 -0.43 -7.44 -1.78 -28.92 -0.2 -3.36 -0.89 -14.79 -1.05 -17.43 -0.03 -0.72 -1.09 -18.12 -0.76 -13.31 -0.3 -4.74 -1.05 -18.05 -0.53 -9.23 -0.52 -8.76 -1.03 -17.95 -0.26 -5.14 -0.72 -12.75 -0.99 -17.82 -0.07 -1.12 -0.89 -16.66 -0.79 -14.83 -0.16 -2.86 -0.92 -17.59 -0.53 -10.77 -0.36 -6.79 -0.86 -17.42 -0.33 -6.79 -0.53 -10.57 -0.79 -17.26 -0.13 -2.84 -0.66 -14.29 -0.69 -16.04 -0.03 -1.03 -0.73 -16.93 -0.49 -12.02 -0.2 -4.78 -0.62 -16.66 -0.3 -8.14 -0.3 -8.43 -0.56 -16.41 -0.16 -4.34 -0.36 -11.93 -0.5 -16.14 -0.03 -0.66 -0.4 -15.31 -0.33 -12.92 -0.06 -2.89 -0.33 -15.65 -0.2 -9.19 -0.1 -6.29 -0.26 -15.32 -0.07 -5.57 -0.1 -9.55 -0.16 -14.95 0 -2.11 -0.07 -12.65 -0.03 -13.37 0 -1.19 0 -10.08 0.07 -9.98 0 -4.12 0.06 -5.76 0.1 -9.79 0.1 -9.15 0.03 -0.5 0.17 -9.58 0.19 -9.42 0.1 -4.55 0.14 -4.81 0.26 -9.22 0.26 -9.12 0 -0.14 0.33 -8.86 0.36 -8.86 0.2 -4.81 0.2 -3.95 0.43 -8.63 0.46 -8.5 0.03 -0.69 0.1 -1.45 1.22 -19.04 0.03 -0.46 0.23 -3.1 1.25 -15.84 0.1 -1.15 0.6 -6.56 0.72 -7.57 0.5 -5.11 0.26 -2.34 1.51 -13.37 0.14 -1.09 0.16 -1.51 0.73 -5.47c1.21,-9.19 2.53,-18.12 3.95,-26.55l0.29 -1.81 0.23 -1.29 2.41 -12.81 0.26 -1.32 0.23 -1.09 2.94 -13.2 0.06 -0.2 3.29 -12.72 0.17 -0.56 0.16 -0.56 3.46 -11.13 0.46 -1.35 3.4 -9.26 0.39 -1.08 0.1 -0.2 0.2 -0.46c1.28,-3.17 2.6,-6.16 3.98,-9l0.37 -0.69c1.45,-2.96 2.93,-5.73 4.48,-8.33l0.03 -0.07 0.03 -0.06 0.13 -0.2c1.45,-2.37 2.94,-4.61 4.45,-6.69l1.02 -1.35c1.55,-1.97 3.13,-3.85 4.75,-5.53l0.19 -0.23 0.37 -0.33c1.54,-1.58 3.19,-3 4.8,-4.25l1.12 -0.86c1.68,-1.25 3.4,-2.27 5.18,-3.19l1.05 -0.53c1.75,-0.82 3.56,-1.48 5.37,-2.01l1.15 -0.33c1.98,-0.49 3.92,-0.82 6,-0.95l0.95 -0.04 2.97 0.1c299.62,778.14 508.58,1436.76 282.45,2299.98 -188.9,721.38 -393.16,1392.69 -387.37,2144.86 5.27,678.89 83.14,1375.53 329.7,2013.01 205.71,531.88 555.85,945.8 935.65,1354.58z"/>
  <path class="fil2" d="M9115.12 22828.27c-306.47,-267.8 -1057.79,-173.39 -1392.82,-194.93 -791.77,-50.73 -1596.98,-396.83 -2222.44,-880.25 -701.71,-542.29 -697.06,-1544.31 -642.15,-2351.82 33.36,-490.84 154.55,-991.69 258.05,-1472.41 36.46,-169.24 86.79,-328.54 96.08,-480.78 -5.2,-13.64 -10.57,-24.44 -16.17,-31.92 -71.28,-94.93 -182.49,124.67 -243.59,226.59 -507.83,847.24 -748.03,2012.64 -532.67,2976.69 67.23,301.07 197.08,1379.91 1253.59,1806.84 1071.69,433.19 2274.25,495.97 3442.12,401.99z"/>
  <path class="fil5" d="M7227.81 15593.05c13.11,172.07 -74.84,1030.48 -71.91,1546.91 1.65,289.8 11.86,580.76 63.12,866.05 55.5,308.87 158.17,606.94 260.55,903.6 204.29,591.96 409.01,1185.2 668.61,1755.12 174.71,383.71 392.61,776.03 758.57,985.06 223.26,127.38 1136.74,442.08 1099.29,632.28 -20.36,103.07 -270.04,250.54 -374.89,247.04 -104.91,-3.49 -78.99,-139.43 -183.9,-137.68 -150.73,2.57 -286.54,87.71 -432.53,125.5 -267.6,69.14 -772.89,-38.61 -1046.89,-74.05 -665.31,-86.2 -823.26,-217.96 -1244.42,-418.9 -467.09,-222.77 -750.96,-672.23 -997.68,-1127.06 -124.08,-228.76 -178.23,-488.29 -221.25,-744.96 -94.77,-564.19 -45.03,-962.07 36.16,-1528.33 118.62,-827.38 468.34,-1617.67 887.1,-2341.02 271.03,-468.08 786.86,-863.65 800.07,-689.56z"/>
  <path class="fil2" d="M8994.5 22516.17c-29.45,-70.26 -90.98,-127.38 -190.95,-149.15 -644.47,-140.26 -1289.39,-305.25 -1864.98,-637.38 -735.08,-424 -912.73,-1293.58 -925.64,-2076.09 -14.29,-867.93 245.8,-1771.66 607.11,-2556.02 171.32,-371.85 378.28,-735.67 585.27,-1088.82l6.33 -10.73c12.55,-191.94 20.88,-342.97 16.17,-404.93 -13.21,-174.09 -529.04,221.48 -800.07,689.56 -418.76,723.35 -768.48,1513.64 -887.1,2341.02 -81.19,566.26 -130.93,964.14 -36.16,1528.33 43.02,256.67 97.17,516.2 221.25,744.96 246.72,454.83 530.59,904.29 997.68,1127.06 421.16,200.94 575.16,465.38 1244.42,418.9 292.74,-20.29 787,62.62 1026.67,73.29z"/>
  <path class="fil5" d="M9798.95 23043.33c-120.13,-250.67 -32.22,-582.43 196.19,-740.81 -374.49,-65.42 -764.04,-42.39 -1128.25,66.61 110.02,130.27 132.32,317.24 98.95,484.41 -33.4,167.23 -115.75,320.17 -196.98,470.08 374.1,-17.56 748.06,-35.21 1122.12,-52.8 -4.05,-82.39 -56.46,-153.14 -92.03,-227.49z"/>
  <path class="fil6" d="M11046.01 19308.54c-29.05,0 -58.7,-24.41 -62.19,-57.87 -67.59,-656.33 38.77,-1374.21 146.38,-2023.82 66.48,-401 122.24,-801.78 117.43,-1209.31 -3.72,-315.49 -67.19,-632.51 36.8,-933.57 34.52,-100.17 135.87,-164.57 233.44,-164.57 70.13,0 138.31,33.37 178.17,110.74 302.95,587.78 157.48,1534.96 14.43,2160.71 -157.68,689.66 -272.22,1464.73 -618.97,2088.87 -11.27,20.22 -28.23,28.82 -45.49,28.82z"/>
  <path class="fil7" d="M12387.02 21686.65c-21.18,0 -42.56,-0.96 -64.04,-2.8 -65.65,-5.76 -113.54,-59.72 -96.91,-127.25 90.98,-370.07 445.05,-653.75 634.22,-977.02 227.78,-389.18 408.22,-798.69 525.26,-1235 126.19,-470.51 214.37,-953.11 220.07,-1441.64 3.72,-321.89 -115.95,-711.99 26.28,-1004.69 37.65,-77.74 115.85,-114.14 195.33,-114.14 63.31,0 127.58,23.03 172.91,66.61 289.11,277.48 211.37,929.85 182.78,1297.06 -38.9,499.33 -116.68,1001.2 -267.84,1479.75 -194.08,614.32 -696.31,2059.12 -1528.06,2059.12z"/>
  <path class="fil7" d="M9826.78 20300.25c-116.34,0 -211.34,-103.46 -227.22,-228.23 -22.63,-177.45 60.94,-304.14 60.65,-480.99 -0.33,-207.65 -24.74,-409.87 -88.74,-608.33 -106.79,-331.17 -264.38,-616.1 -441.13,-913.12 -335.39,-563.13 -730.47,-1311.59 -563.5,-1985.01 5.27,-21.37 24.05,-32.41 43.02,-32.41 15.22,0 30.6,7.21 39.33,21.74 252.15,422.62 430.16,880.81 702.57,1295.42 240.89,366.39 488.33,712.91 660.14,1118.6 197.44,466.09 486.72,1453 -71.67,1779.56 -38.74,22.63 -77.15,32.77 -113.45,32.77z"/>
  <path class="fil8" d="M7981.37 21283.3c-513.16,-0.09 -929.79,-1036.31 -1030.25,-1368.41 -199.91,-660.04 -469.79,-1670.3 -72.37,-2306.76 12.35,-19.76 36.96,-30.57 60.64,-30.57 27.24,0 53.17,14.3 57.65,46.02 92.59,653.06 165.09,1302.66 388.82,1929.11 124.01,346.89 260.75,699.97 481.84,998.43 121.28,163.71 292.44,299.46 399.32,471.17 40.32,64.86 11.8,145.49 -48.52,184.89 -80.76,52.77 -160.02,76.12 -237.13,76.12z"/>
  <path class="fil5" d="M5894.22 17361.68l14.52 10.34 23.82 -10.61c37.22,-36 57.05,-89.23 52.64,-140.95 -55.87,-2.3 -111.44,-13.47 -164.04,-32.64 -20.39,62.88 28.1,125.37 73.06,173.86z"/>
  <path class="fil5" d="M6092.98 16939.39l14.52 10.34 23.78 -10.47c37.13,-36.14 57.06,-89.37 52.61,-140.95 -55.93,-2.57 -111.47,-13.6 -164.01,-32.78 -20.42,62.89 28.1,125.41 73.1,173.86z"/>
  <path class="fil5" d="M6355.77 16413.77l14.52 10.35 23.75 -10.58c37.19,-36 57.12,-89.23 52.67,-140.95 -55.89,-2.43 -111.4,-13.47 -164,-32.64 -20.42,62.85 28.03,125.37 73.06,173.82z"/>
  <path class="fil5" d="M13314.89 15462.18l11.96 13.37 25.46 -5.1c44.27,-27.08 75.3,-74.71 82.38,-125.96 -54.02,-14.66 -105.73,-37.65 -152.8,-67.99 -33.83,56.82 -0.23,128.53 33,185.68z"/>
  <path class="fil5" d="M13068.54 15790.82l11.85 13.24 25.57 -5.11c44.13,-26.94 75.3,-74.6 82.28,-125.96 -54.05,-14.66 -105.77,-37.65 -152.81,-67.98 -33.73,56.95 -0.13,128.62 33.11,185.81z"/>
  <path class="fil5" d="M12789.18 16316.4l11.85 13.24 25.56 -5.1c44.28,-26.95 75.3,-74.48 82.39,-125.96 -54.02,-14.53 -105.74,-37.65 -152.91,-67.86 -33.7,56.92 -0.13,128.53 33.11,185.68z"/>
  <path class="fil5" d="M12518.41 16960.87l15.35 9.05 22.8 -12.55c33.92,-39.26 49.01,-94 40.18,-145 -56,2.31 -112.26,-3.72 -166.28,-18.38 -14.89,64.4 38.94,122.51 87.95,166.88z"/>
  <path class="fil5" d="M12354.01 17388.03l15.45 9.09 22.76 -12.55c33.93,-39.3 49.05,-94.01 40.22,-145.03 -55.9,2.3 -112.26,-3.96 -166.18,-18.48 -14.99,64.49 38.8,122.6 87.75,166.97z"/>
  <path class="fil5" d="M12191.55 17936.51l15.32 9.09 22.79 -12.68c33.93,-39.27 49.15,-93.88 40.22,-145.04 -55.9,2.47 -112.16,-3.69 -166.18,-18.35 -14.89,64.5 38.8,122.61 87.85,166.98z"/>
  <path class="fil5" d="M12060.12 18544.27l15.35 9.06 22.76 -12.55c33.93,-39.16 49.15,-94.01 40.22,-145.03 -55.9,2.44 -112.16,-3.82 -166.18,-18.35 -14.99,64.37 38.81,122.47 87.85,166.87z"/>
  <path class="fil5" d="M11709.88 19582.76l15.35 9.09 22.76 -12.68c33.92,-39.26 49.18,-93.88 40.22,-145.03 -55.9,2.47 -112.13,-3.69 -166.18,-18.35 -14.96,64.5 38.8,122.6 87.85,166.97z"/>
  <path class="fil5" d="M11521.82 20056.3l15.32 9.09 22.79 -12.68c33.93,-39.03 49.12,-93.91 40.22,-145.03 -55.96,2.47 -112.26,-3.72 -166.28,-18.38 -14.82,64.49 38.91,122.6 87.95,167z"/>
  <path class="fil5" d="M11439.61 20319.03l15.38 9.22 22.79 -12.71c33.93,-39.13 49.12,-93.88 40.22,-145 -55.86,2.4 -112.22,-3.72 -166.28,-18.25 -14.82,64.4 38.9,122.47 87.89,166.74z"/>
  <path class="fil5" d="M11258.9 20746.22l15.38 9.06 22.76 -12.55c33.93,-39.26 49.15,-94.01 40.25,-145.03 -55.93,2.3 -112.22,-3.82 -166.21,-18.35 -14.89,64.37 38.8,122.47 87.82,166.87z"/>
  <path class="fil5" d="M11061.13 21023.71l13.17 12.05 24.84 -7.51c41.44,-31.29 67.73,-81.59 69.67,-133.27 -55.21,-9.55 -108.97,-27.34 -158.74,-52.9 -28.03,59.98 12.32,128.07 51.06,181.63z"/>
  <path class="fil5" d="M10831.08 21286.57l13.11 12.08 24.93 -7.54c41.34,-31.29 67.73,-81.56 69.67,-133.4 -55.17,-9.33 -108.93,-27.21 -158.77,-52.68 -28,59.89 12.39,127.98 51.06,181.54z"/>
  <path class="fil5" d="M11972.73 18859.87l15.35 9.06 22.76 -12.55c33.93,-39.17 49.05,-93.88 40.22,-144.9 -55.89,2.34 -112.25,-3.96 -166.31,-18.48 -14.85,64.49 38.84,122.6 87.98,166.87z"/>
  <path class="fil3" d="M4527.39 18471.87l14.49 10.45 23.75 -10.68c37.22,-36.13 57.08,-89.36 52.74,-140.95 -55.97,-2.33 -111.44,-13.5 -164.08,-32.67 -20.39,62.88 28.07,125.4 73.1,173.85z"/>
  <path class="fil3" d="M4725.35 17968.95l12.69 9.06 20.78 -9.29c32.58,-31.62 50,-78.23 46.15,-123.42 -48.98,-2.08 -97.53,-11.73 -143.58,-28.6 -17.82,55.08 24.6,109.82 63.96,152.25z"/>
  <path class="fil3" d="M4410.45 18837.8l16.67 11.96 27.27 -12.19c42.76,-41.5 65.62,-102.51 60.51,-161.87 -64.23,-2.93 -128,-15.58 -188.38,-37.55 -23.42,72.17 32.25,143.98 83.93,199.65z"/>
  <path class="fil3" d="M4307.32 19525.71l19.5 6.52 22.46 -19.76c28.36,-52.28 31.95,-117.46 9.36,-172.57 -62.16,16.5 -126.75,23.39 -190.99,20.36 -0.82,75.99 73.76,127.8 139.67,165.45z"/>
  <path class="fil3" d="M4323.82 20166.49l19.47 6.39 22.36 -19.77c28.46,-52.27 31.99,-117.49 9.46,-172.57 -62.16,16.54 -126.82,23.45 -191.02,20.49 -0.86,75.83 73.75,127.81 139.73,165.46z"/>
  <path class="fil3" d="M4499.06 21075.52l20.49 0 15.18 -25.53c10.81,-58.7 -6.02,-121.71 -44.56,-167.13 -53.93,34.98 -113.25,61.59 -175.21,78.69 22.73,72.37 109.72,98.49 184.1,113.97z"/>
  <path class="fil3" d="M4724.4 21542.67l18.84 -8.14 3.72 -29.51c-13.4,-58.01 -53.85,-109.23 -107.22,-135.61 -35.64,53.46 -79.58,101.45 -129.68,141.67 49.64,57.51 139.93,47.07 214.34,31.59z"/>
  <path class="fil3" d="M5119.68 22071.75l12.18 -16.37 -11.66 -27.57c-40.81,-43.35 -101.48,-67.27 -160.94,-62.95 -3.85,64 -17.62,127.54 -40.58,187.66 71.9,24.63 144.57,-30.01 201,-80.77z"/>
  <path class="fil3" d="M5694.67 22449.5l12.19 -16.37 -11.7 -27.44c-40.81,-43.42 -101.52,-67.26 -160.94,-63.08 -3.79,64.13 -17.59,127.74 -40.55,187.79 71.84,24.51 144.51,-29.98 201,-80.9z"/>
  <path class="fil3" d="M6187.58 22595.72l8.76 -18.48 -16.8 -24.77c-48.35,-34.72 -112.49,-46.35 -170.07,-30.87 8.63,63.64 7.38,128.73 -3.62,191.94 75.17,10.38 136.11,-57.05 181.73,-117.82z"/>
  <path class="fil3" d="M6890.61 22791.97l5.2 -19.76 -21.11 -21.25c-53.92,-25.1 -119.18,-24.64 -172.8,1.42 20.29,60.84 31.19,125.01 32.18,189.27 75.86,-3.85 123.03,-81.49 156.53,-149.68z"/>
  <path class="fil9" d="M8166.03 14327.57l-18.12 9.65 -25.46 -15.67c-36.99,-46.61 -51.71,-110.19 -39,-168.39 64.07,5.56 128.93,1.28 191.64,-12.65 13.91,74.57 -50.66,138.51 -109.06,187.06z"/>
  <path class="fil9" d="M8363.11 14738.23l-18.05 9.65 -25.53 -15.68c-36.99,-46.61 -51.68,-110.15 -38.9,-168.38 64,5.6 128.92,1.28 191.61,-12.65 13.87,74.61 -50.66,138.51 -109.13,187.06z"/>
  <path class="fil9" d="M8572.24 15249.32l-16.76 11.83 -27.24 -12.32c-42.53,-41.7 -65.03,-102.94 -59.62,-162.2 64.26,-2.43 128.13,-14.88 188.57,-36.49 23.03,72.4 -33.03,143.84 -84.95,199.18z"/>
  <path class="fil9" d="M8802.19 15692.86l-16.76 11.85 -27.24 -12.32c-42.46,-41.7 -64.93,-102.97 -59.59,-162.22 64.3,-2.44 128.1,-14.76 188.58,-36.6 23.09,72.4 -33.01,143.85 -84.99,199.29z"/>
  <path class="fil9" d="M9130.83 16366.37l-16.8 11.73 -27.24 -12.19c-42.46,-41.6 -64.95,-102.97 -59.58,-162.33 64.23,-2.33 128.03,-14.75 188.54,-36.36 23.13,72.27 -32.94,143.71 -84.92,199.15z"/>
  <path class="fil9" d="M9509.94 16990.61l-14.33 14.66 -29.02 -7.08c-49.35,-33.37 -82.65,-89.37 -88.12,-148.76 62.72,-14.06 123.26,-37.75 178.73,-70.06 35.84,66.8 -6.22,147.34 -47.26,211.24z"/>
  <path class="fil9" d="M9739.95 17319.12l-14.36 14.75 -29.05 -7.18c-49.34,-33.23 -82.55,-89.36 -88.11,-148.62 62.75,-14.2 123.26,-37.88 178.82,-70.19 35.81,66.93 -6.32,147.34 -47.3,211.24z"/>
  <path class="fil9" d="M10050.11 17762.78l-14.59 14.43 -28.85 -7.68c-48.69,-34.29 -80.84,-90.97 -85.25,-150.36 63.01,-12.79 124.02,-35.45 180.18,-66.71 34.49,67.63 -9.19,147.24 -51.49,210.32z"/>
  <path class="fil9" d="M10279.6 18301.51l-18.54 8.6 -24.61 -17.07c-34.12,-48.68 -45.12,-113.08 -28.92,-170.36 63.61,9.29 128.6,8.83 192.04,-1.51 9.45,75.43 -58.73,135.38 -119.97,180.34z"/>
  <path class="fil10" d="M12197.71 13874.26l-19.99 4.18 -20.1 -22.17c-22.33,-55.2 -18.48,-120.39 10.12,-172.57 59.95,23.46 123.29,37.52 187.52,41.84 -7.77,75.53 -87.72,118.74 -157.55,148.72z"/>
  <path class="fil10" d="M12164.94 14284.95l-20.1 4.18 -20.12 -22.2c-22.3,-55.21 -18.48,-120.39 10.24,-172.57 59.85,23.49 123.29,37.52 187.43,41.83 -7.78,75.53 -87.72,118.75 -157.45,148.76z"/>
  <path class="fil10" d="M12132.06 14892.69l-20.12 4.18 -20 -22.07c-22.3,-55.34 -18.58,-120.3 10.11,-172.57 59.86,23.45 123.3,37.52 187.46,41.83 -7.8,75.4 -87.75,118.65 -157.45,148.63z"/>
  <path class="fil10" d="M12115.66 15385.5l-20.09 4.31 -20.1 -22.2c-22.33,-55.21 -18.48,-120.4 10.08,-172.57 59.98,23.35 123.43,37.55 187.56,41.83 -7.77,75.53 -87.72,118.78 -157.45,148.63z"/>
  <path class="fil10" d="M12017.14 16305.5l-20.13 4.18 -20.09 -22.2c-22.3,-55.07 -18.48,-120.26 10.11,-172.44 59.85,23.36 123.39,37.52 187.56,41.7 -7.81,75.67 -87.75,118.75 -157.45,148.76z"/>
  <path class="fil10" d="M12066.28 15747.01l-19.99 4.18 -20.1 -22.3c-22.33,-55.07 -18.47,-120.29 10.12,-172.44 59.95,23.36 123.39,37.52 187.56,41.7 -7.81,75.67 -87.76,118.75 -157.59,148.86z"/>
  <path class="fil10" d="M11939.73 16840.01l-20.46 1.42 -16.73 -24.87c-14.16,-57.78 -1.15,-121.68 34.65,-169.31 55.87,31.59 116.64,54.71 179.52,68.08 -18.34,73.69 -103.66,104.95 -176.98,124.68z"/>
  <path class="fil10" d="M11465.13 19339.9l-20.25 -3 -11.3 -27.67c-2.14,-59.49 23.68,-119.34 68.45,-158.6 48.29,42.39 103.1,77.37 161.96,103.16 -33.14,68.45 -123.03,81.69 -198.86,86.11z"/>
  <path class="fil10" d="M11545.47 18909.97l-20.42 1.15 -16.77 -24.73c-14.26,-57.88 -1.18,-121.68 34.59,-169.31 55.93,31.72 116.71,54.71 179.56,67.95 -18.35,73.69 -103.63,105.18 -176.96,124.94z"/>
  <path class="fil10" d="M11327.35 19725.95l-19.9 -5.14 -8.23 -28.56c4.18,-59.52 36.3,-116.21 84.98,-150.6 43.48,47.4 94.21,88.05 149.94,120 -40.15,64.5 -130.97,68.02 -206.79,64.3z"/>
  <path class="fil10" d="M11048.05 20300.91l-19.83 -5.1 -8.3 -28.69c4.25,-59.39 36.3,-116.21 85.02,-150.5 43.45,47.4 94.24,87.98 149.97,120.03 -40.18,64.36 -131,67.98 -206.86,64.26z"/>
  <path class="fil10" d="M11709.78 18236.45l-20.46 1.16 -16.73 -24.74c-14.3,-57.88 -1.29,-121.68 34.62,-169.31 55.9,31.72 116.67,54.71 179.52,67.95 -18.35,73.69 -103.63,105.18 -176.95,124.94z"/>
  <path class="fil10" d="M11775.43 17809.29l-20.46 1.25 -16.73 -24.73c-14.17,-57.75 -1.16,-121.78 34.62,-169.31 55.89,31.62 116.67,54.61 179.55,67.98 -18.38,73.66 -103.66,105.05 -176.98,124.81z"/>
  <path class="fil9" d="M10473.29 19114.72l-20 4.29 -20.25 -21.98c-22.6,-55.07 -19.11,-120.26 9.25,-172.53 59.95,23.12 123.53,36.82 187.66,40.78 -7.31,75.53 -87.06,119.11 -156.66,149.44z"/>
  <path class="fil9" d="M10507.35 19728.72l-20.56 0.49 -15.68 -25.46c-11.79,-58.34 3.96,-121.68 41.64,-167.79 54.55,34.02 114.33,59.62 176.62,75.53 -21.47,72.86 -107.97,100.59 -182.02,117.23z"/>
  <path class="fil9" d="M10414.49 20202.82l-19.89 -5.07 -8.21 -28.83c4.29,-59.29 36.53,-116.11 85.19,-150.23 43.38,47.36 94.14,88.04 149.77,120.23 -40.25,64.26 -131.03,67.75 -206.86,63.9z"/>
  <path class="fil9" d="M10237.84 20807.23l-17.36 -10.81 0.59 -29.87c21.74,-55.41 69.34,-100.04 125.99,-118.42 27.38,58.24 63.74,112.16 107.39,159.33 -57.55,49.51 -145.33,25.89 -216.61,-0.23z"/>
  <path class="fil9" d="M10007.88 21283.53l-17.45 -10.8 0.65 -29.74c21.75,-55.57 69.34,-100.17 126,-118.42 27.4,58.24 63.77,112.16 107.38,159.16 -57.54,49.68 -145.29,26.06 -216.58,-0.2z"/>
  <path class="fil9" d="M10394.6 18712.17l-18.62 8.6 -24.5 -17.07c-34.19,-48.81 -45.13,-113.08 -28.92,-170.36 63.5,9.29 128.56,8.83 192,-1.38 9.42,75.3 -58.73,135.38 -119.96,180.21z"/>
  <path class="fil5" d="M6595.7 16004.3l11.79 13.24 25.5 -5.01c44.3,-26.94 75.59,-74.37 82.84,-125.59 -53.92,-14.89 -105.6,-38.02 -152.61,-68.58 -33.96,56.72 -0.62,128.53 32.48,185.94z"/>
  <path class="fil5" d="M5704.65 17858.31l19.57 13.96c11.82,2.54 23.19,-5.7 31.95,-14.19 50,-48.56 76.75,-120.17 70.79,-189.64 -75.17,-3.26 -149.81,-18.11 -220.6,-43.94 -27.47,84.62 37.78,168.62 98.29,233.81z"/>
  <path class="fil5" d="M5540.35 18367.65l19.53 13.94c11.89,2.53 23.29,-5.83 32.02,-14.2 50.07,-48.55 76.75,-120.26 70.79,-189.63 -75.17,-3.36 -149.95,-18.25 -220.6,-44.04 -27.47,84.58 37.71,168.71 98.26,233.93z"/>
  <path class="fil5" d="M5440.51 19905.01l23.65 4.32c11.79,-2.8 18.51,-15.25 22.79,-26.52 24.31,-65.42 17.72,-141.54 -17.46,-201.85 -69.33,29.41 -143.15,48.02 -218.09,55.1 11.46,88.22 106.49,136.18 189.11,168.95z"/>
  <path class="fil5" d="M5545.35 20501.15l24.02 -1.41c10.9,-5.34 14.52,-18.91 15.97,-31 8.63,-69.27 -15.28,-141.81 -63.44,-192.24 -60.71,44.54 -128.3,79.75 -199.61,103.9 31.55,83.07 135.15,107.84 223.06,120.75z"/>
  <path class="fil5" d="M5801.56 20990.34l20.45 -12.55c7.05,-9.98 3.83,-23.59 -0.62,-34.85 -25.1,-65.09 -80.64,-117.6 -146.91,-139.34 -32.38,67.99 -75.2,130.87 -126.59,185.92 67.2,58.36 170.1,31.19 253.67,0.82z"/>
  <path class="fil5" d="M6212.22 21647.48l20.45 -12.55c7.08,-9.88 3.82,-23.58 -0.59,-34.98 -25.17,-65.05 -80.64,-117.62 -146.91,-139.2 -32.38,67.99 -75.24,130.94 -126.56,185.91 67.17,58.24 169.97,31.13 253.61,0.82z"/>
  <path class="fil5" d="M6668.3 21996.32l13.31 -19.97c2.34,-11.99 -6.39,-23.02 -15.12,-31.52 -50.1,-48.55 -122.47,-73.06 -191.71,-65.05 -0.99,75.33 -13.61,150.36 -37.26,221.84 85.38,24.84 167.5,-42.88 230.78,-105.3z"/>
  <path class="fil5" d="M7341.75 22340.37l13.34 -19.83c2.27,-11.96 -6.39,-23.02 -15.15,-31.49 -50.14,-48.59 -122.44,-73.09 -191.74,-65.09 -0.96,75.3 -13.54,150.37 -37.19,221.82 85.44,24.87 167.46,-42.86 230.74,-105.41z"/>
  <path class="fil11" d="M13299.77 23171.01c0,0 -2503.51,2.9 -3629.45,-3.59l-0.43 -7.64c-13.57,2.2 -112.16,4.15 -267.54,5.66 -155.77,-1.51 -254.62,-3.46 -268.26,-5.66l-0.29 7.64c-1126.11,6.49 -3629.52,3.59 -3629.52,3.59 -72.24,617.29 373.86,1387.81 637.45,1590.49 580.59,446.73 1086.08,477.85 1816.02,558.95 24.25,205.91 -9.94,387.77 41.51,588.7 10.31,40.32 22.36,82.48 52.37,111.24 31.53,30.17 76.09,46.9 119.7,47.73 607.44,12.08 950.05,1.87 1230.73,-5.01 280.55,6.88 623.15,17.09 1230.56,5.01 43.64,-0.83 88.24,-17.56 119.7,-47.73 30.07,-28.76 42.1,-70.92 52.41,-111.24 51.38,-200.93 17.22,-382.79 41.47,-588.7 729.97,-81.1 1235.43,-112.22 1816.09,-558.95 263.65,-202.68 709.65,-973.2 637.48,-1590.49z"/>
  <path class="fil12" d="M8686.21 26073.68l-7.18 0 -14.49 -0.03 -7.28 0 -14.69 -0.03 -7.38 -0.04 -7.44 0 -2.21 0 -5.24 -0.03 -7.51 -0.03 -22.69 -0.1 -7.65 -0.03 -2.04 0 -5.63 -0.04 -7.71 -0.06 -7.74 -0.04 -1.91 0 -5.86 -0.03 -7.81 -0.06 -15.74 -0.1 -7.91 -0.07 -7.97 -0.07 -1.71 0 -6.3 -0.06 -8.03 -0.07 -8.07 -0.06 -1.58 0 -6.53 -0.07 -8.13 -0.1 -8.17 -0.06 -1.52 0 -6.72 -0.07 -8.26 -0.1 -8.27 -0.1 -1.39 0 -6.95 -0.06 -8.4 -0.1 -8.4 -0.1 -1.25 0 -7.21 -0.1 -8.47 -0.1 -8.53 -0.1 -1.12 -0.03 -7.44 -0.1 -8.63 -0.1 -8.63 -0.13 -1.02 0 -7.68 -0.1 -8.73 -0.13 -8.76 -0.13 -0.86 0 -7.97 -0.13 -8.83 -0.13 -8.89 -0.14 -0.72 0 -8.21 -0.13 -8.99 -0.13 -8.99 -0.16 -0.59 0 -8.47 -0.14 -9.09 -0.16 -9.16 -0.17 -0.43 0 -8.72 -0.13 -9.23 -0.16 -9.25 -0.17 -0.33 -0.03 -9 -0.16 -9.35 -0.17 -9.39 -0.16 -0.13 0 -9.29 -0.2 -9.49 -0.17 -9.52 -0.19c-43.61,-0.83 -88.17,-17.56 -119.7,-47.73 -30.01,-28.76 -42.06,-70.92 -52.37,-111.24 -51.45,-200.93 -17.26,-382.79 -41.51,-588.7 -729.94,-81.1 -1235.43,-112.22 -1816.02,-558.95l-11.57 -9.16 -0.92 -0.76 -10.84 -9.09 -1.91 -1.64 -10.04 -8.9 -1.02 -0.92 -6.23 -5.73 -7.18 -6.69 -5.63 -5.43 -6.56 -6.39 -7.61 -7.65 -5.2 -5.27 -7.58 -7.9 -5.53 -5.83 -7.28 -7.84 -7.02 -7.71 -6.45 -7.18 -8.44 -9.62 -4.01 -4.61 -7.61 -8.93 -8.24 -9.75 -11.66 -14.16 -1.58 -1.94 -12.78 -16.05 -0.53 -0.65 -13.37 -17.23 -0.56 -0.73 -2.44 -3.22 -12.05 -16.01 -11.83 -16.08 -0.16 -0.2 -8.9 -12.38 -4.44 -6.19 -3.79 -5.37 -9.69 -13.9 -1.08 -1.55 -9.23 -13.51 -3.19 -4.67 -5.96 -8.86 -2.57 -3.89 -9.39 -14.23 -6.33 -9.75 -6.06 -9.42 -6.95 -10.91 -10.77 -17.19 -2.11 -3.39 -11.79 -19.31 -2.7 -4.44c-8.86,-14.73 -17.66,-29.75 -26.42,-44.96l-1.38 -2.34 -1.02 -1.78 -13.05 -23.09 -0.03 -0.07 -12.88 -23.39 -1.05 -1.97 -13.8 -25.73 -10.61 -20.22 -3.06 -5.93 -2.94 -5.77 -9.65 -19.04 -2.76 -5.53 -9.82 -19.86 -3.43 -7.08 -9.42 -19.64 -3.92 -8.26 -7.74 -16.61 -5.33 -11.69 -6.53 -14.39 -5.6 -12.55 -6.39 -14.56 -5.4 -12.39 -7.67 -18.18 -3.66 -8.63c-7.51,-18.09 -14.85,-36.3 -22,-54.65l-0.4 -1.02 -0.36 -0.92 -10.28 -26.95 -0.46 -1.22 -9.55 -25.89 -1.22 -3.39 -1.84 -5.2 -7.91 -22.37 -2.87 -8.43 -7.04 -20.89 -2.24 -6.91 -7.42 -22.86 -1.97 -6.33 -6.66 -21.54 -2.86 -9.55 -5.67 -19.34 -3.36 -11.82 -4.61 -16.6 -2.9 -10.74 -6.32 -24.18 -0.99 -3.85 -7.02 -28.63 -0.16 -0.66 -6.16 -26.84 -0.99 -4.29 -6.13 -28.88 -0.13 -0.66 -0.43 -2.04 -5.46 -28.2 -0.04 -0.2 -4.97 -28 -0.43 -2.47 -1.32 -8.2 -3.39 -21.31 -0.76 -5.37 -3.32 -23.62 -1.09 -8.5 -2.47 -20.22 -1.55 -14.27 -1.35 -13.43 -1.25 -13.61 -1.58 -19.33 -0.6 -8.01 -1.21 -19.89 -0.6 -11.3 -0.72 -18.55 -0.33 -10.01 -0.33 -18.08 -0.17 -11.67 0.1 -23.91 0.04 -2.21 0 -0.23 0.03 -1.94 0.72 -26.35 0.07 -1.32 0.03 -0.89 0.1 -2.17c0.36,-8.77 0.83,-17.49 1.39,-26.19l0.03 -0.2 0.13 -2.01c1.28,-18.87 2.96,-37.65 5.14,-56.29l0.39 0 1.19 0 0.23 0 1.75 0 2.76 0 0.89 0 2.64 0 4.28 0.03 1.98 0 3.06 0 5.76 0 3.46 0 3.03 0 7.22 0 5.33 0 2.61 0.03 8.63 0 7.6 0 1.72 0 10.01 0.04 10.21 0 0.5 0 11.33 0 81.62 0.1 15.78 0 8.17 0 8.2 0.03 16.93 0 11.17 0 6.36 0.03 18.08 0 14.46 0 4.18 0.04 19.21 0 18.02 0 1.71 0.03 20.26 0c225.76,0.16 546.17,0.39 906.56,0.39l633.56 -0.23 18.12 0 11.72 -0.03 6.4 0 18.14 0 145.4 -0.13 18.22 0 18.18 -0.03 18.18 0 2.41 -0.04 15.77 0 18.15 0 18.19 -0.03 18.18 -0.03 5.34 0 12.81 0 18.12 -0.04 18.15 0 18.11 -0.03 8.27 0 9.85 -0.03 18.08 0 18.09 -0.04 18.05 -0.03 11.16 0 6.89 0 18.02 -0.03c-6.46,235.91 72.79,472.42 180.84,684.91 313.61,616.7 883.77,1097.68 1544.4,1303.13 55.87,17.29 114.57,34.06 157.03,74.28 58.5,55.27 72.66,141.6 83.6,221.45 26.02,189.07 -15.91,413 -19.6,617.29l-92.99 -1.32 -7.48 -0.13 -0.95 0 -6.46 -0.13 -43.78 -0.79 -7.14 -0.13 -6.95 -0.14 -0.2 0 -7.08 -0.13 -7.05 -0.13 -1.32 -0.03 -5.7 -0.13 -6.98 -0.14 -2.77 -0.06 -4.15 -0.07 -6.92 -0.16 -4.21 -0.07 -2.67 -0.06 -6.85 -0.17 -5.6 -0.1 -1.19 -0.03 -6.78 -0.17 -6.76 -0.13 -0.23 0 -6.45 -0.16 -6.69 -0.13 -1.65 -0.07 -5 -0.1 -6.62 -0.13 -3.04 -0.1 -3.55 -0.07 -6.56 -0.16 -4.38 -0.1 -2.14 -0.03 -6.52 -0.17 -5.7 -0.16 -0.76 0 -12.88 -0.3 -0.59 -0.03 -5.8 -0.13 -6.35 -0.13 -1.95 -0.07 -4.38 -0.1 -6.32 -0.16 -3.26 -0.1 -3.04 -0.07 -6.25 -0.13 -4.55 -0.13 -1.68 -0.03 -6.22 -0.17 -12.36 -0.3 -6.12 -0.16 -0.93 -0.03 -5.2 -0.1 -6.09 -0.17 -2.21 -0.06 -3.86 -0.1 -6.06 -0.13 -3.49 -0.1 -2.53 -0.07 -6.03 -0.13 -4.71 -0.13 -1.29 -0.03 -5.96 -0.14 -5.96 -0.16 -8.76 0.2 -4.45 0.13 -4.38 0.1 -8.83 0.23 -0.1 0 -8.79 0.2 -4.58 0.13 -4.38 0.1 -8.99 0.23 -0.14 0 -8.89 0.19 -4.71 0.14 -4.38 0.09 -9.13 0.24 -0.23 0.03 -8.96 0.2 -4.87 0.13 -4.38 0.1 -37.52 0.89 -0.4 0.03 -9.15 0.2 -9.59 0.23 -9.65 0.23 -0.49 0.03 -105.9 2.27 -4.42 0.07c-90.85,1.75 -190.72,3.19 -303.5,3.85l-8.54 0.07 -4.54 0 -13.18 0.06 -2.11 0.04 -38.17 0.1 -2.28 0.03 -11.39 0 -56.07 0.03z"/>
  <path class="fil13" d="M5802.32 23515.69c137.91,0 137.91,-213.94 0,-213.94 -137.95,0 -137.95,213.94 0,213.94z"/>
  <path class="fil13" d="M6187.58 23541.58c158.17,0 158.17,-245.14 0,-245.14 -158.18,0 -158.18,245.14 0,245.14z"/>
  <path class="fil13" d="M6623.5 23554.62c148.99,0 148.99,-230.9 0,-230.9 -148.92,0 -148.92,230.9 0,230.9z"/>
  <path class="fil13" d="M7063.67 23591.45c50.66,7.12 95.56,2.44 133.15,-35.18 62.48,-62.42 48.48,-170.36 -27.71,-215 -64.36,-37.65 -149.61,-15.25 -187.23,49.18 -40.35,68.75 -7.57,188.32 81.79,201z"/>
  <path class="fil13" d="M7596.83 23583.68c147.08,0 147.08,-228.11 0,-228.11 -147.1,0 -147.1,228.11 0,228.11z"/>
  <path class="fil13" d="M8032.79 23563.19c159.92,0 159.92,-247.97 0,-247.97 -159.95,0 -159.95,247.97 0,247.97z"/>
  <path class="fil13" d="M8608.15 23548.23l6.62 -8.59c41.73,-53.93 41.73,-106.56 0,-160.35l-6.62 -8.5c-70.3,-90.75 -214.21,-10.94 -214.21,88.64 0,99.61 143.91,179.45 214.21,88.8z"/>
  <path class="fil13" d="M9015.74 23578.31c144.9,0 144.9,-224.58 0,-224.58 -144.9,0 -144.9,224.58 0,224.58z"/>
  <path class="fil13" d="M9482.63 23609.37c180.18,0 180.18,-279.39 0,-279.39 -180.21,0 -180.21,279.39 0,279.39z"/>
  <path class="fil13" d="M10132.13 23596.69l3.53 -3.16c57.44,-49.12 57.44,-158.15 0,-207.33l-3.53 -2.99c-96.77,-82.75 -257.55,-32.61 -257.55,106.69 0,139.3 160.78,189.43 257.55,106.79z"/>
  <path class="fil13" d="M10577.51 23645.37c187.59,0 187.59,-290.76 0,-290.76 -187.49,0 -187.49,290.76 0,290.76z"/>
  <path class="fil13" d="M11000.82 23406.23l-2.8 3.49c-66.21,80.77 -28.89,213.45 88.41,213.45 116.77,0 181,-179.88 63.11,-233.08l-5.3 -2.34c-45.26,-20.45 -107.75,-25.1 -143.42,18.48z"/>
  <path class="fil13" d="M11520.41 23584.04c121.38,0 121.38,-188.28 0,-188.28 -121.35,0 -121.35,188.28 0,188.28z"/>
  <path class="fil13" d="M11946.25 23621c182.09,0 182.09,-282.39 0,-282.39 -182.09,0 -182.09,282.39 0,282.39z"/>
  <path class="fil13" d="M12432.9 23617.87c191.28,0 191.28,-296.62 0,-296.62 -191.28,0 -191.28,296.62 0,296.62z"/>
  <path class="fil13" d="M12929.66 23620.63c207.88,0 207.88,-322.24 0,-322.24 -207.75,0 -207.75,322.24 0,322.24z"/>
  <path class="fil13" d="M8255.86 25947.95c97.4,0 97.4,-151.19 0,-151.19 -97.5,0 -97.5,151.19 0,151.19z"/>
  <path class="fil13" d="M8590.36 25945.15c93.81,0 93.81,-145.49 0,-145.49 -93.71,0 -93.71,145.49 0,145.49z"/>
  <path class="fil13" d="M8965.51 25937.97c84.62,0 84.62,-131.23 0,-131.23 -84.56,0 -84.56,131.23 0,131.23z"/>
  <path class="fil13" d="M9310.22 25930.63c88.28,0 88.28,-136.77 0,-136.77 -88.21,0 -88.21,136.77 0,136.77z"/>
  <path class="fil13" d="M9675.23 25939.12c112.16,0 112.16,-173.95 0,-173.95 -112.16,0 -112.16,173.95 0,173.95z"/>
  <path class="fil13" d="M10070.63 25929.14c99.28,0 99.28,-153.99 0,-153.99 -99.31,0 -99.31,153.99 0,153.99z"/>
  <path class="fil13" d="M10425.46 25920.28c113.97,0 113.97,-176.85 0,-176.85 -113.97,0 -113.97,176.85 0,176.85z"/>
  <path class="fil14" d="M10180.32 24484.48c343,589.88 1507.95,801.81 1897.59,156.89 143.16,-237.07 69.01,-613.57 -194.08,-740.12 -286.08,-137.59 -538,-77.94 -840.92,-73.1 -320.73,5.14 -554.4,39.4 -809.46,244.84 -117.39,94.61 -123.65,290.17 -53.13,411.49z"/>
  <path class="fil1" d="M2554.96 21260.64c213.09,0 426.21,0 639.16,0 168.69,0 168.69,-261.44 0,-261.44 -212.95,0 -426.07,0 -639.16,0 -168.58,0 -168.58,261.44 0,261.44z"/>
  <path class="fil1" d="M2729.28 20040.49c129.72,-7.05 249.52,10.58 372.08,53.5 159.5,55.73 227.49,-196.79 69.47,-252.22 -142.06,-49.84 -291.15,-70.86 -441.55,-62.72 -167.66,9.06 -168.49,270.53 0,261.44z"/>
  <path class="fil1" d="M2346.36 17271.49c78.46,82.15 148.92,169.41 211.96,263.91 93.02,139.66 319.58,8.93 225.8,-131.79 -75.1,-112.72 -159.42,-219.15 -252.84,-317.11 -116.67,-122.14 -301.27,62.98 -184.92,184.99z"/>
  <path class="fil1" d="M3112.76 22476.15c119.01,-18.75 241.98,7.41 337.57,82.61 55.99,43.91 130.01,54.84 184.92,0 45.85,-46.02 56.1,-140.85 0,-185.02 -176.85,-138.71 -370.57,-184.66 -591.99,-149.78 -70.59,11.17 -108.67,98.1 -91.38,160.81 20.43,74.41 90.52,102.41 160.88,91.38z"/>
  <path class="fil1" d="M2436.65 13779.44c-85.54,159.85 -188.24,306.22 -311.62,439.04 -114.61,123.27 73.12,305.49 188.18,181.64 138.15,-148.55 256.33,-314.62 351.78,-493.56 79.41,-148.53 -148.76,-276.27 -228.34,-127.12z"/>
  <path class="fil1" d="M1417.79 14580.89c98.63,166.7 197.27,333.42 295.84,500.03 85.86,145.12 310.9,11.97 225.04,-133.15 -98.57,-166.61 -197.22,-333.33 -295.84,-500.02 -85.86,-145.12 -310.9,-11.98 -225.04,133.14z"/>
  <path class="fil1" d="M1474.48 13066.03c-32.52,48.14 -74.32,87.98 -122.83,119.4 -141.1,91.29 -8.55,316.68 133.13,225.01 89.33,-57.83 158.82,-129.33 218.04,-217.3 39.94,-59.15 7.62,-145.47 -50.58,-177.86 -66.15,-36.76 -138.07,-8.37 -177.76,50.75z"/>
  <path class="fil1" d="M15103.18 13805.08c102.94,-135.28 232.85,-223.4 390.72,-284.05 157.81,-60.72 47.51,-297.94 -109.04,-237.78 -200.25,77.08 -365.83,200.62 -495.66,371.56 -102.13,134.31 112.16,284.08 213.98,150.27z"/>
  <path class="fil1" d="M16268.72 13434.41c148.78,91.45 305.14,78.29 448.77,-15.26 59.77,-38.97 59.19,-133.8 17.67,-184.09 -49.27,-59.6 -124.3,-56.51 -184.08,-17.7 -47.1,30.67 -93.62,26.54 -132.03,2.99 -60.68,-37.34 -139.32,-29.1 -182.18,31.93 -39.08,55.64 -28.83,144.79 31.85,182.13z"/>
  <path class="fil1" d="M16888.6 14431.94c129,53.08 268.94,59.63 404.5,30.01 164.26,-35.98 119.89,-293.64 -45.17,-257.61 -94.86,20.84 -181,18.55 -271.34,-18.61 -155.94,-64.07 -243.72,182.24 -87.99,246.21z"/>
  <path class="fil1" d="M2413.88 12652.83c119.68,-25.87 239.4,-51.74 359.18,-77.52 165.23,-35.64 95.31,-287.78 -68.58,-252.4 -119.73,25.86 -239.5,51.64 -359.23,77.51 -165.21,35.67 -95.35,287.7 68.63,252.41z"/>
  <path class="fil1" d="M15409.95 12458.41c33.4,-47.55 66.79,-95.1 100.17,-142.62 96.91,-137.99 -117.07,-288.27 -213.98,-150.28 -33.37,47.52 -66.77,95.07 -100.16,142.62 -96.91,137.99 117.07,288.27 213.97,150.28z"/>
  <path class="fil1" d="M18106.53 15279.32c-30.05,-91.67 -9.95,-179.79 45.83,-255.77 99.76,-136.15 -114.42,-286.13 -213.95,-150.26 -114.09,155.58 -128.41,335.07 -69.5,515.07 22.22,67.85 113.94,91.49 173.34,64.34 70.3,-32.14 86.45,-105.68 64.28,-173.38z"/>
  <path class="fil1" d="M16103.49 19575.9c126.79,105.05 245.3,220.33 348.73,348.6 44.87,55.44 138.52,46.25 184.89,0 54.39,-54.48 44.6,-129.45 0,-184.99 -103.43,-128.07 -222.07,-243.46 -348.63,-348.6 -54.84,-45.46 -131.07,-53.82 -184.99,0 -46.84,46.81 -54.84,139.34 0,184.99z"/>
  <path class="fil1" d="M15881.78 20679.84c31.16,-27.31 65.55,-32.64 105.17,-24.51 69.7,14.27 140.95,-19.3 160.81,-91.34 17.92,-65.19 -21.47,-146.55 -91.34,-160.84 -135.25,-27.64 -255.18,0.59 -359.63,91.7 -53.7,46.94 -47.77,137.1 0,184.99 53,52.87 131.29,46.71 184.99,0z"/>
  <path class="fil1" d="M16916.57 20829.62l21.84 6.85 -4.41 -11.14 7.58 29.16c14.49,69.73 95.39,109.22 160.81,91.34 71.8,-19.77 105.86,-91.11 91.21,-160.81 -22.44,-107.62 -103.53,-180.15 -207.42,-207.56 -163.25,-43.11 -232.39,209.04 -69.61,252.16z"/>
  <path class="fil1" d="M17044.28 19028.48c155.15,-58.01 293.06,-144.21 406.25,-265.99 114.59,-123.43 -69.84,-308.65 -184.89,-185.02 -81.56,87.85 -178.14,156.76 -290.96,198.82 -66.7,25 -111.44,87.52 -91.21,160.85 17.52,64.13 93.88,116.3 160.81,91.34z"/>
  <path class="fil1" d="M15837.5 21784.11c27.54,103.89 99.94,185.12 207.56,207.55 69.7,14.53 141.04,-19.4 160.81,-91.34 17.88,-65.42 -21.48,-146.19 -91.34,-160.81 -14.86,-3.03 -34.72,-18.02 -18.12,-3.03l-6.75 -21.84c-43.09,-162.92 -295.27,-93.68 -252.16,69.47z"/>
 </g>
</svg>
